<svg xmlns="http://www.w3.org/2000/svg" width="782.46" height="312.67" viewBox="0 0 782.46 312.67">
  <g id="Layer_2" data-name="Layer 2" transform="translate(0.037)" opacity="0.9">
    <g id="JCMI-logo-grey" transform="translate(-0.037)">
      <path id="Path_237" data-name="Path 237" d="M397.358,79.312a10.963,10.963,0,1,1-3.217-7.757,10.979,10.979,0,0,1,3.217,7.757" transform="translate(243.506 44.325)" fill="#fff"/>
      <path id="Path_238" data-name="Path 238" d="M567.463,130.979C564.034,43.526,516.837.22,449.414.22S334.777,43.526,331.365,130.979c-4.088,86.909,50.3,181.334,118.049,181.334C507.589,312.264,571.584,217.887,567.463,130.979ZM493.692,260.5c-16.32,17.458-31.42,22.848-46.422,23.079-14.062-.165-27.1-5.9-43.339-23.26-2.258-2.423-4.434-4.945-6.594-7.5-21.167-26.03-30.167-59.049-28.189-92.514.841-14.49,4.138-31.058,11.342-43.339,14.391-24.53,33.3-27.1,45.07-24.53a26.953,26.953,0,0,1,18.793,14.408,19.783,19.783,0,0,1,2.061,8.407l11.127,6.347-11.457,9.05s.956,39.564,47.394,38.558c23.161-.462,32.97-6.446,45.564-11.061C534.641,195.286,518.585,233.944,493.692,260.5ZM540.1,130.27h0c-20.029,11.358-32.08,15.067-47.46,14.408a32.557,32.557,0,0,1-4.055-1.072c-7.154-2.572-8.424-7.072-8.753-11.539l18.3-14.952-17.21-10.105c-7.731-47.477-74.43-55.258-106.328-22.139a97.707,97.707,0,0,0-14.738,18.447c4.583-21.645,13.567-39.416,26.623-52.241,16.633-16.37,35.575-25.024,62.89-25.024s44.163,8.572,60.813,24.909c18.133,17.87,28.5,45.268,29.92,79.243Z" transform="translate(214.809 0.143)" fill="#fff"/>
      <path id="Path_239" data-name="Path 239" d="M157.5,158.878c21.612,0,61.176-1.2,79.507-23.326,16.2-19.535,22.139-85.046,22.3-135.341-57.6,4.8-103.773,77.611-113.087,158.668Z" transform="translate(94.883 0.136)" fill="#fff"/>
      <path id="Path_240" data-name="Path 240" d="M244.408,135.545c18.974,22.881,59.791,23.326,82.721,23.343h8.028C325.777,77.831,279.62,5.034,222.12.22c.165,50.279,6.1,115.79,22.288,135.325" transform="translate(144.104 0.143)" fill="#fff"/>
      <path id="Path_241" data-name="Path 241" d="M335.979,103.676h-7.468c-22.518,0-64.769.231-84.073,23.573-18.035,21.76-21.612,95.332-22.288,117.917,63.418-2.885,115.955-61.522,113.878-141.507Z" transform="translate(144.124 67.223)" fill="#fff"/>
      <path id="Path_242" data-name="Path 242" d="M237.363,127.138c-19.419-23.442-62.2-23.442-82.754-23.458h-8.885c-2.061,80,50.493,138.655,113.927,141.507-.659-22.452-4.22-96.239-22.288-118.032" transform="translate(94.523 67.236)" fill="#fff"/>
      <path id="Path_243" data-name="Path 243" d="M.024,103.67c-2.143,82.046,52.867,141.771,118.461,141.771H121.4c65.594,0,120.6-59.659,118.477-141.771Z" transform="translate(0.037 67.229)" fill="#fff"/>
      <path id="Path_244" data-name="Path 244" d="M238.675,159.03C229.081,75.138,179.989,0,119.637,0S10.177,75.138.55,159.014Z" transform="translate(0.417)" fill="#fff"/>
    </g>
  </g>
</svg>