<?xml version="1.0" encoding="UTF-8"?>
<svg width="38px" height="38px" viewBox="0 0 38 38" version="1.1" xmlns="http://www.w3.org/2000/svg" xmlns:xlink="http://www.w3.org/1999/xlink">
    <!-- Generator: sketchtool 52.3 (67297) - http://www.bohemiancoding.com/sketch -->
    <title>6C9960BF-EBCF-41EB-9597-98279E16E094@2x</title>
    <desc>Created with sketchtool.</desc>
    <g id="Page-1" stroke="none" stroke-width="1" fill="none" fill-rule="evenodd">
        <g id="Home" transform="translate(-1514.000000, -6030.000000)" fill="#FFFFFF" fill-rule="nonzero">
            <g id="footer" transform="translate(0.000000, 5741.000000)">
                <g id="Group-7">
                    <g id="social-icons" transform="translate(1462.000000, 289.000000)">
                        <g id="121509" transform="translate(52.000000, 0.000000)">
                            <path d="M19.1105,19.16625 L19.1105,19 C19.0765,19.05575 19.0295,19.1115 19,19.16625 L19.1105,19.16625 Z" id="Shape"></path>
                            <path d="M0,0 L0,38 L38,38 L38,0 L0,0 Z M11.2972973,31.8378378 L6.16216216,31.8378378 L6.16216216,14.3783784 L11.2972973,14.3783784 L11.2972973,31.8378378 Z M9.22600512,12.3243243 L9.18982535,12.3243243 C7.35284995,12.3243243 6.16216216,10.954633 6.16216216,9.24262868 C6.16216216,7.49304801 7.38765067,6.16216216 9.26186041,6.16216216 C11.1364758,6.16216216 12.288469,7.49304801 12.3243243,9.24262868 C12.3243243,10.954633 11.1364758,12.3243243 9.22600512,12.3243243 Z M32.8648649,31.8378378 L27.1456949,31.8377538 L27.1456949,22.7111495 C27.1456949,20.4188521 26.319378,18.8541162 24.2494355,18.8541162 C22.6686259,18.8541162 21.7292367,19.9076608 21.3154007,20.9281955 C21.1649765,21.2927322 21.1256765,21.7994718 21.1256765,22.3106631 L21.1256765,31.8378378 L15.4054054,31.8378378 C15.4054054,31.8378378 15.4820574,16.3792144 15.4054054,14.7788648 L21.1256765,14.7788648 L21.1256765,17.1961462 C21.8856746,16.0364323 23.2419489,14.3783784 26.280078,14.3783784 C30.0438176,14.3783784 32.8648649,16.8159025 32.8648649,22.0553194 L32.8648649,31.8378378 Z" id="Shape"></path>
                        </g>
                    </g>
                </g>
            </g>
        </g>
    </g>
</svg>