<?xml version="1.0" encoding="UTF-8"?>
<svg width="460px" height="313px" viewBox="0 0 460 313" version="1.1" xmlns="http://www.w3.org/2000/svg" xmlns:xlink="http://www.w3.org/1999/xlink">
    <!-- Generator: sketchtool 52.3 (67297) - http://www.bohemiancoding.com/sketch -->
    <title>ADD7ECE0-A3F2-4B5C-A841-7160D945CC83@2x</title>
    <desc>Created with sketchtool.</desc>
    <g id="Page-1" stroke="none" stroke-width="1" fill="none" fill-rule="evenodd">
        <g id="Home" transform="translate(-84.000000, -5230.000000)">
            <rect fill="#FFFFFF" x="0" y="0" width="1920" height="6279"></rect>
            <g id="Logos" transform="translate(184.000000, 5194.000000)">
                <g id="Group-11" style="mix-blend-mode: multiply;" transform="translate(0.000000, 136.000000)">
                    <g id="Atoms-/-Logo_press-/-Card">
                        <polygon id="Rectangle-5" points="0 0 258.371472 0 258.371472 112.840003 0 112.840003"></polygon>
                        <g id="Atoms-/-Logo-/-Press-/-#2" transform="translate(48.271884, 20.020001)" fill="#484848" fill-rule="evenodd" stroke-width="1">
                            <g id="Logo-#7" transform="translate(25.480001, 21.840001)">
                                <path d="M0.82754554,27.5955488 C1.90694596,29.4668017 3.8410687,30.5839616 6.00130978,30.5839616 L6.00134109,30.5839616 C8.45113388,30.5839616 10.7349542,29.2665765 11.96151,27.1459421 L14.8311966,22.1844574 L0.542314566,22.1844574 C-0.240332926,23.9282174 -0.145308117,25.9089602 0.82754554,27.5955488" id="Fill-2"></path>
                                <path d="M24.8007862,27.1413083 C26.0268098,29.2647918 28.311632,30.5839616 30.7636477,30.5839616 L30.7650567,30.5839616 C32.9254856,30.5839616 34.8601719,29.4669583 35.9403864,27.5959558 C36.9138662,25.9098682 37.0099869,23.9288123 36.2289049,22.1844574 L21.938927,22.1844574 L24.8007862,27.1413083" id="Fill-3"></path>
                                <polyline id="Fill-4" points="34.9623666 19.9264988 29.8309957 11.0413505 6.94084997 11.0413505 1.809479 19.9264988 34.9623666 19.9264988"></polyline>
                                <path d="M18.6641248,0.0225429529 L18.1187732,0.0225429529 C15.1512752,0.0225429529 12.3859124,1.61886581 10.901772,4.18851196 L8.24574254,8.78339196 L28.5290775,8.78339196 L25.8805937,4.18760398 C24.3969856,1.61886581 21.6315914,0.0225429529 18.6641248,0.0225429529" id="Fill-5"></path>
                                <path d="M46.0787038,18.7281217 C46.0787038,16.9523945 46.8646701,15.6424298 48.3492801,15.0602267 C49.0188371,14.7982275 50.1832432,14.6527002 51.8424985,14.6527002 L52.7157874,14.6527002 C53.4435804,14.6527002 54.0839881,14.6817869 54.6661599,14.7400229 L54.6661599,13.0807363 C54.6661599,10.9557186 53.5891077,10.2279569 51.1438548,10.2279569 C50.1250073,10.2279569 49.1352777,10.3734842 48.1455168,10.6646014 C47.7088724,10.781042 47.4759911,10.781042 47.3886685,10.4317202 L47.2431099,9.82039911 C47.1266693,9.47107727 47.2139919,9.26731402 47.5633138,9.17999139 C48.8150425,8.80155156 50.0667713,8.59778832 51.2894134,8.59778832 C55.015513,8.59778832 56.5583277,9.84951709 56.5583277,12.876973 L56.5583277,22.8326299 C56.5583277,23.0655111 56.500123,23.1237471 56.2381238,23.1237471 L55.2775122,23.1237471 C55.015513,23.1237471 54.8990724,23.0364244 54.8990724,22.8326299 L54.8408365,21.8429003 L54.7826005,21.8429003 C54.1422241,22.8617479 53.1233452,23.3857463 51.6969399,23.3857463 L50.2414479,23.3857463 C48.9606011,23.3857463 47.796195,23.0073064 47.1266693,22.3377494 C46.4280256,21.6391371 46.0787038,20.7367301 46.0787038,19.6014107 L46.0787038,18.7281217 Z M47.9999582,19.3685294 C47.9999582,20.2709677 48.2037528,20.8822574 48.6112793,21.2606972 C48.9897191,21.6100191 49.5719222,21.7846643 50.3870065,21.7846643 L51.5805306,21.7846643 C53.530903,21.7846643 54.6661599,20.7367301 54.6661599,18.7572397 L54.6661599,16.3410735 C54.2004287,16.2828688 53.6182257,16.2537508 52.9195507,16.2537508 L51.2894134,16.2537508 C50.0667713,16.2537508 49.2226003,16.4575141 48.7277199,16.8359539 C48.2328395,17.2143937 47.9999582,17.8548015 47.9999582,18.7572397 L47.9999582,19.3685294 Z" id="Fill-6"></path>
                                <path d="M60.5169328,3.73640052 C60.5169328,3.53263727 60.6333421,3.41616535 60.8662234,3.41616535 L62.0597788,3.41616535 C62.2926287,3.41616535 62.4090693,3.53263727 62.4090693,3.73640052 L62.4090693,19.3103248 C62.4090693,20.3582903 62.4381873,20.7076122 62.6710372,21.1442566 C62.8166271,21.3480199 63.165949,21.4644605 63.7190341,21.4644605 L64.5050004,21.4644605 C64.679677,21.4644605 64.8543535,21.4935472 64.8543535,21.7846643 L64.8543535,22.7744252 C64.8543535,23.0073064 64.7669996,23.1237471 64.563205,23.1237471 L63.4570349,23.1237471 C62.4090693,23.1237471 61.6521897,22.8908658 61.2155765,22.4542214 C60.7497828,21.9593409 60.5169328,21.056934 60.5169328,19.7760872 L60.5169328,3.73640052" id="Fill-7"></path>
                                <path d="M67.7070077,5.01724727 C67.7070077,4.08572236 68.2310061,3.64904658 69.0461217,3.64904658 L69.162531,3.64904658 C70.0067333,3.64904658 70.4433778,4.11480903 70.4433778,5.01724727 L70.4433778,5.19189254 C70.4433778,6.12341745 69.9485286,6.5891799 69.162531,6.5891799 L69.0461217,6.5891799 C68.0854788,6.5891799 67.7070077,6.15253543 67.7070077,5.19189254 L67.7070077,5.01724727 Z M68.1436835,9.17999139 C68.1436835,8.97619683 68.2601241,8.85978753 68.4930053,8.85978753 L69.6865294,8.85978753 C69.9194106,8.85978753 70.0358513,8.97619683 70.0358513,9.17999139 L70.0358513,22.8908658 C70.0358513,23.0364244 69.9485286,23.1237471 69.7738521,23.1237471 L68.3765647,23.1237471 C68.2310061,23.1237471 68.1436835,23.0364244 68.1436835,22.8908658 L68.1436835,9.17999139 Z" id="Fill-8"></path>
                                <path d="M73.7324572,15.4677532 C73.7324572,10.3152795 75.4499484,8.59778832 79.3216067,8.59778832 C81.1846565,8.59778832 82.4945899,9.17999139 83.2805562,10.3443975 L83.3387922,10.3443975 L83.4843195,9.20907806 C83.5134375,8.97619683 83.6589647,8.85978753 83.920964,8.85978753 L84.6196076,8.85978753 C84.9398428,8.85978753 85.0271967,8.91799218 85.0271967,9.23819604 L85.0271967,27.9560169 C85.0271967,28.1598114 84.9398428,28.2762207 84.7360796,28.2762207 L83.4261148,28.2762207 C83.2223516,28.2762207 83.1350289,28.1598114 83.1350289,27.9560169 L83.1350289,21.8429003 L83.0768243,21.8429003 C82.2617087,22.8617479 80.9808619,23.3857463 79.2342527,23.3857463 C75.2752719,23.3857463 73.7324572,21.4935472 73.7324572,16.8359539 L73.7324572,15.4677532 Z M75.653743,16.6903953 C75.653743,18.6698858 75.9739155,20.0380551 76.6143546,20.7658168 C77.2256756,21.4644605 78.0407286,21.7555777 79.4671653,21.7555777 C81.7959149,21.7555777 83.1350289,20.5620536 83.1350289,18.2623593 L83.1350289,13.9540566 C83.1350289,11.5961263 81.7959149,10.2279569 79.3507247,10.2279569 C78.0698466,10.2279569 77.3129983,10.4899561 76.7307952,11.1012459 C76.0030335,11.8872435 75.653743,13.4300581 75.653743,15.7297524 L75.653743,16.6903953 Z" id="Fill-9"></path>
                                <path d="M88.8111879,9.32554998 C88.8111879,9.06355077 88.9858332,8.85978753 89.2187144,8.85978753 L90.2957666,8.85978753 C90.5577971,8.85978753 90.7033557,9.00531481 90.7033557,9.26731402 L90.7033557,18.7863577 C90.7033557,19.9507325 90.9070877,20.5911715 91.4601728,21.056934 C91.9550532,21.5226964 92.8283735,21.7555777 94.0800709,21.7555777 C95.2736264,21.7555777 96.1760646,21.4935472 96.758205,20.9404621 C97.2531168,20.4747309 97.4277621,19.9507325 97.4277621,18.7863577 L97.4277621,9.23819604 C97.4277621,9.00531481 97.5732893,8.85978753 97.7770526,8.85978753 L98.999726,8.85978753 C99.2034892,8.85978753 99.3199299,8.97619683 99.3199299,9.23819604 L99.3199299,19.0192076 C99.3199299,20.5038176 98.8832854,21.6100191 98.0390831,22.3377494 C97.1949121,23.0655111 96.059624,23.3857463 94.0800709,23.3857463 C92.2752884,23.3857463 90.9653236,23.0364244 90.1211214,22.3377494 C89.2478011,21.6100191 88.8111879,20.5038176 88.8111879,19.0192076 L88.8111879,9.32554998" id="Fill-10"></path>
                                <path d="M102.347229,18.7281217 C102.347229,16.9523945 103.133227,15.6424298 104.617806,15.0602267 C105.287331,14.7982275 106.451737,14.6527002 108.111024,14.6527002 L108.984344,14.6527002 C109.712106,14.6527002 110.352545,14.6817869 110.934685,14.7400229 L110.934685,13.0807363 C110.934685,10.9557186 109.857633,10.2279569 107.412349,10.2279569 C106.393501,10.2279569 105.403772,10.3734842 104.414042,10.6646014 C103.977398,10.781042 103.744548,10.781042 103.657163,10.4317202 L103.511635,9.82039911 C103.395195,9.47107727 103.482517,9.26731402 103.831871,9.17999139 C105.083599,8.80155156 106.335297,8.59778832 107.55797,8.59778832 C111.28407,8.59778832 112.826853,9.84951709 112.826853,12.876973 L112.826853,22.8326299 C112.826853,23.0655111 112.768649,23.1237471 112.506681,23.1237471 L111.546038,23.1237471 C111.28407,23.1237471 111.167567,23.0364244 111.167567,22.8326299 L111.109362,21.8429003 L111.051126,21.8429003 C110.41075,22.8617479 109.391902,23.3857463 107.965465,23.3857463 L106.509942,23.3857463 C105.229127,23.3857463 104.064752,23.0073064 103.395195,22.3377494 C102.69652,21.6391371 102.347229,20.7367301 102.347229,19.6014107 L102.347229,18.7281217 Z M104.268484,19.3685294 C104.268484,20.2709677 104.472247,20.8822574 104.879836,21.2606972 C105.258245,21.6100191 105.840448,21.7846643 106.655563,21.7846643 L107.849056,21.7846643 C109.799429,21.7846643 110.934685,20.7367301 110.934685,18.7572397 L110.934685,16.3410735 C110.468954,16.2828688 109.886751,16.2537508 109.188076,16.2537508 L107.55797,16.2537508 C106.335297,16.2537508 105.491095,16.4575141 104.996277,16.8359539 C104.501365,17.2143937 104.268484,17.8548015 104.268484,18.7572397 L104.268484,19.3685294 Z" id="Fill-11"></path>
                            </g>
                        </g>
                    </g>
                </g>
            </g>
        </g>
    </g>
</svg>