<svg width="60" height="60" viewBox="0 0 60 60" fill="none" xmlns="http://www.w3.org/2000/svg">
<path fill-rule="evenodd" clip-rule="evenodd" d="M0 30C0 13.4315 13.4315 0 30 0C46.5685 0 60 13.4315 60 30C60 46.5685 46.5685 60 30 60C13.4315 60 0 46.5685 0 30ZM30 0.983607C13.9747 0.983607 0.983607 13.9747 0.983607 30C0.983607 46.0253 13.9747 59.0164 30 59.0164C46.0253 59.0164 59.0164 46.0253 59.0164 30C59.0164 13.9747 46.0253 0.983607 30 0.983607Z" fill="#FFC43C"/>
<path fill-rule="evenodd" clip-rule="evenodd" d="M35.9266 29.9994L22.2522 19.1606C21.9159 18.894 21.9159 18.4665 22.2522 18.1999C22.5885 17.9334 23.1279 17.9334 23.4642 18.1999L37.7478 29.5216C38.0841 29.7881 38.0841 30.2156 37.7478 30.4822L23.4642 41.7988C23.2992 41.9296 23.0771 42 22.8614 42C22.6456 42 22.4236 41.9346 22.2586 41.7988C21.9223 41.5322 21.9223 41.1047 22.2586 40.8382L35.9266 29.9994Z" fill="#FFC43C"/>
</svg>
