<svg width="60" height="60" viewBox="0 0 60 60" fill="none" xmlns="http://www.w3.org/2000/svg">
<path fill-rule="evenodd" clip-rule="evenodd" d="M59.0164 30C59.0164 13.9747 46.0253 0.983607 30 0.983607C13.9747 0.983607 0.983604 13.9747 0.983604 30C0.983604 46.0253 13.9747 59.0164 30 59.0164C46.0253 59.0164 59.0164 46.0253 59.0164 30ZM30 0C46.5685 0 60 13.4315 60 30C60 46.5685 46.5685 60 30 60C13.4315 60 0 46.5685 0 30C0 13.4315 13.4315 0 30 0Z" fill="#FFC43C"/>
<path fill-rule="evenodd" clip-rule="evenodd" d="M24.0734 29.9994L37.7478 19.1606C38.0841 18.894 38.0841 18.4665 37.7478 18.1999C37.4115 17.9334 36.8721 17.9334 36.5358 18.1999L22.2522 29.5216C21.9159 29.7881 21.9159 30.2156 22.2522 30.4822L36.5358 41.7988C36.7008 41.9296 36.9229 42 37.1386 42C37.3544 42 37.5764 41.9346 37.7414 41.7988C38.0777 41.5322 38.0777 41.1047 37.7414 40.8382L24.0734 29.9994Z" fill="#FFC43C"/>
</svg>
