<?xml version="1.0" encoding="UTF-8"?>
<svg width="378px" height="496px" viewBox="0 0 378 496" version="1.1" xmlns="http://www.w3.org/2000/svg" xmlns:xlink="http://www.w3.org/1999/xlink">
    <!-- Generator: Sketch 52.5 (67469) - http://www.bohemiancoding.com/sketch -->
    <title>Combined Shape@2x</title>
    <desc>Created with Sketch.</desc>
    <g id="Page-1" stroke="none" stroke-width="1" fill="none" fill-rule="evenodd" opacity="0.9">
        <path d="M193.387362,496 L184.159451,496 C182.589644,442.076131 175.554352,338.308278 148.029951,304.581376 C115.819935,265.113867 47.8406868,265.228932 12.1531703,265.203618 L0.274734071,265.254247 C-5.35205802,394.106506 76.2055136,489.511706 175.683662,496 L0,496 L0,0 L378,0 L378,496 L201.798017,496 C301.28211,489.500731 382.856206,394.088923 377.276595,265.203618 L369.139995,265.203618 C367.384597,265.249679 366.551181,265.275013 366.551181,265.275013 C330.952706,265.275013 261.754141,264.94107 229.53248,304.438467 C201.996143,338.190963 194.957833,442.035377 193.387362,496 Z M13.9690112,257.795563 L13.9690112,257.836851 C50.2502163,257.827676 116.620931,257.171661 147.99461,218.833774 C181.95478,177.337382 184.085232,29.4472768 184.169179,0 C90.1547774,3.50256984 14.3660602,124.379076 0.920845895,257.795563 L13.9690112,257.795563 Z M346.50529,257.836851 L376.625971,257.836851 C363.144418,124.416454 287.369419,3.55980519 193.377638,0 C193.461628,29.469954 195.595432,177.44401 229.57058,218.963594 C256.470126,251.839577 309.138756,257.019771 346.50529,257.836851 Z" id="Combined-Shape" fill="#FFFFFF" fill-rule="nonzero"></path>
    </g>
</svg>