<?xml version="1.0" encoding="UTF-8"?>
<svg width="49px" height="48px" viewBox="0 0 49 48" version="1.1" xmlns="http://www.w3.org/2000/svg" xmlns:xlink="http://www.w3.org/1999/xlink">
    <!-- Generator: sketchtool 52.3 (67297) - http://www.bohemiancoding.com/sketch -->
    <title>E5DAE677-71F8-488E-8561-8EE959F2E026@2x</title>
    <desc>Created with sketchtool.</desc>
    <g id="Page-1" stroke="none" stroke-width="1" fill="none" fill-rule="evenodd">
        <g id="Home" transform="translate(-325.000000, -3899.000000)" fill="#0f3f93" fill-rule="nonzero">
            <g id="Group-9" transform="translate(325.000000, 3823.000000)">
                <g id="56937" transform="translate(0.000000, 76.000000)">
                    <path d="M19.5984942,9.53107951 C20.8184808,8.96019371 21.3300881,7.33536487 20.7791264,6.01793609 L18.8507605,1.49476393 C18.2997988,0.221688586 16.961749,-0.349636364 15.7811168,0.221688586 C12.4359923,1.80260313 9.56312067,3.86657489 7.28056512,6.36968958 C4.48640229,9.31150805 2.5973908,12.6929086 1.57417624,16.4256235 C0.550961685,20.2026918 0,25.3402249 0,31.8834545 L0,45.3651424 C0,46.8143141 1.06256896,48 2.36126436,48 L17.8275459,48 C19.1262413,48 20.1888103,46.8143141 20.1888103,45.3651424 L20.1888103,28.1068254 C20.1888103,26.6572146 19.1262413,25.4719678 17.8275459,25.4719678 L10.4289176,25.4719678 C10.5076264,21.0361851 11.4521322,17.4795665 13.183726,14.8003555 C14.6004846,12.6494334 16.7256226,10.8928617 19.5984942,9.53107951 Z" id="Shape"></path>
                    <path d="M47.5960219,9.49560824 C48.818309,8.92420255 49.3304867,7.29789407 48.7788803,5.97926557 L46.8468782,1.49636821 C46.2948776,0.221693993 44.9543046,-0.34971169 43.7714462,0.221693993 C40.4594425,1.80404819 37.6201879,3.86989951 35.2942939,6.33133938 C32.4944679,9.32023065 30.56286,12.7047105 29.5373217,16.4408246 C28.5121777,20.1325448 28,25.2756355 28,31.868778 L28,45.362743 C28,46.8132343 29.0645726,48 30.3657169,48 L45.8611628,48 C47.1623071,48 48.2268797,46.8132343 48.2268797,45.362743 L48.2268797,28.0887096 C48.2268797,26.6377787 47.1623071,25.4514526 45.8611628,25.4514526 L38.4091545,25.4514526 C38.4880117,21.0116305 39.4346928,17.4517731 41.1691576,14.7701222 C42.5885877,12.6168019 44.717733,10.8586306 47.5960219,9.49560824 Z" id="Shape"></path>
                </g>
            </g>
        </g>
    </g>
</svg>