<?xml version="1.0" encoding="UTF-8"?>
<svg width="439px" height="589px" viewBox="0 0 439 589" version="1.1" xmlns="http://www.w3.org/2000/svg" xmlns:xlink="http://www.w3.org/1999/xlink">
    <!-- Generator: Sketch 52.5 (67469) - http://www.bohemiancoding.com/sketch -->
    <title>red egg normal@2x</title>
    <desc>Created with Sketch.</desc>
    <g id="Page-1" stroke="none" stroke-width="1" fill="none" fill-rule="evenodd" opacity="0.304221">
        <g id="Details-Multi-Stage-incubators-and-hatchers" transform="translate(-960.000000, -4464.000000)" fill="#CDCDCD">
            <g id="red-egg-normal" transform="translate(960.000000, 4464.000000)">
                <path d="M25.5194996,301 C64.8998662,300.882863 136.977445,298.729778 170.393218,257.029084 C199.90283,220.203511 210.702851,96.7524998 211,2 C106.095544,11.0139542 21.9591125,148.22017 5,300.983266 L25.5194996,301" id="Fill-23"></path>
                <path d="M271.523,255.613869 C306.056,298.665121 380.3816,299.517346 422.1344,299.534056 L436.7414,299.534056 C419.8016,147.013757 335.7452,10.0173084 230.9366,0.949196262 C231.2282,95.5739439 242.0228,218.845682 271.523,255.613869" id="Fill-24"></path>
                <path d="M438.275,321.892411 L438.275,321.897981 L424.694,321.920262 C383.6864,321.781009 306.758,322.360299 271.523,366.291626 C238.6802,407.237383 232.1624,545.676486 230.942,588.187439 C346.4102,582.756598 442.0658,472.407477 438.2966,321.892411 L438.275,321.892411" id="Fill-26"></path>
                <path d="M16.3149386,320.027819 L0.242875153,320.022255 L0.242875153,320 L0.107588424,320 C-3.6642056,470.389676 92.2432627,580.630927 208,586 C206.787831,543.798532 200.294068,405.087285 167.327398,364.126545 C131.871452,320.066766 53.8218315,320.038947 16.3149386,320.027819 Z" id="Fill-28"></path>
            </g>
        </g>
    </g>
</svg>