<?xml version="1.0" encoding="UTF-8"?>
<svg width="460px" height="313px" viewBox="0 0 460 313" version="1.1" xmlns="http://www.w3.org/2000/svg" xmlns:xlink="http://www.w3.org/1999/xlink">
    <!-- Generator: sketchtool 52.3 (67297) - http://www.bohemiancoding.com/sketch -->
    <title>E2803D15-63F6-4796-8963-5242EEACB9EB@2x</title>
    <desc>Created with sketchtool.</desc>
    <g id="Page-1" stroke="none" stroke-width="1" fill="none" fill-rule="evenodd">
        <g id="Home" transform="translate(-1376.000000, -5230.000000)">
            <rect fill="#FFFFFF" x="0" y="0" width="1920" height="6279"></rect>
            <g id="Logos" transform="translate(184.000000, 5194.000000)">
                <g id="Group-11" style="mix-blend-mode: multiply;" transform="translate(0.000000, 136.000000)">
                    <g id="Atoms-/-Logo_press-/-Card" transform="translate(1292.574780, 0.000000)">
                        <polygon id="Rectangle-5" points="0 0 258.371472 0 258.371472 112.840003 0 112.840003"></polygon>
                        <g id="Atoms-/-Logo-/-Press-/-#7" transform="translate(48.271884, 20.020001)" fill="#484848" fill-rule="evenodd" stroke-width="1">
                            <g id="Logo-#2" transform="translate(32.760001, 14.560000)">
                                <g id="Group-6" transform="translate(75.991502, 0.122850)">
                                    <path d="M15.4088127,6.34706298 C11.3239097,2.26231792 5.89327262,0.0129519004 0.116567103,0.0129519004 L0.116567103,6.9128399 C8.23677684,6.9128399 14.8430358,13.5189409 14.8430358,21.6391506 C14.8430358,24.3900079 14.084086,26.9666463 12.7658353,29.1716284 L14.3262234,35.4166557 C14.4552685,35.9323624 13.983156,36.3970513 13.4695025,36.2599507 L7.15245006,34.5732026 C5.0605602,35.7154971 2.66319503,36.3654613 0.116567103,36.3654613 L0.116567103,43.2653493 C5.89327262,43.2653493 11.3239097,41.0158254 15.4088127,36.9312383 C19.4935578,32.8464932 21.7430817,27.4156982 21.7430817,21.6391506 C21.7430817,15.8624451 19.4935578,10.4316501 15.4088127,6.34706298" id="Clip-5"></path>
                                    <path d="M15.4088127,6.34706298 C11.3239097,2.26231792 5.89327262,0.0129519004 0.116567103,0.0129519004 L0.116567103,6.9128399 C8.23677684,6.9128399 14.8430358,13.5189409 14.8430358,21.6391506 C14.8430358,24.3900079 14.084086,26.9666463 12.7658353,29.1716284 L14.3262234,35.4166557 C14.4552685,35.9323624 13.983156,36.3970513 13.4695025,36.2599507 L7.15245006,34.5732026 C5.0605602,35.7154971 2.66319503,36.3654613 0.116567103,36.3654613 L0.116567103,43.2653493 C5.89327262,43.2653493 11.3239097,41.0158254 15.4088127,36.9312383 C19.4935578,32.8464932 21.7430817,27.4156982 21.7430817,21.6391506 C21.7430817,15.8624451 19.4935578,10.4316501 15.4088127,6.34706298" id="Fill-4"></path>
                                </g>
                                <path d="M6.8927978,27.1089242 C8.55822265,27.1089242 9.69814783,26.7232103 10.6273677,26.2496762 C10.7851598,26.1797043 10.8202247,26.0745096 10.7499369,25.9165596 L9.94360214,24.1985374 C9.87331438,24.0405874 9.78565213,24.0405874 9.62786008,24.1105592 C8.87396471,24.5141215 7.99734218,24.8118573 6.91033025,24.8118573 C4.80627824,24.8118573 3.19329279,23.2340947 3.19329279,20.9547182 C3.19329279,18.7630039 4.87640804,17.1147956 6.8927978,17.1147956 C7.97949383,17.1147956 8.78630245,17.4480701 9.52298127,17.8162516 C9.66292498,17.8863814 9.80318458,17.868691 9.87331438,17.7108989 L10.6798071,16.0277837 C10.7499369,15.8872082 10.7322465,15.764639 10.55708,15.6596022 C9.73289683,15.2386654 8.62866835,14.8354191 6.94539515,14.8354191 C3.36845935,14.8354191 0.545576866,17.4652867 0.545576866,20.9547182 C0.545576866,24.724195 3.03518484,27.1089242 6.8927978,27.1089242 Z M24.5310748,20.9896251 C24.5310748,17.3076525 21.7260407,14.8354191 18.1492628,14.8354191 C14.572327,14.8354191 11.7492866,17.290278 11.7492866,20.9896251 C11.7492866,24.6889722 14.572327,27.1089242 18.1492628,27.1089242 C21.7260407,27.1089242 24.5310748,24.6717556 24.5310748,20.9896251 Z M21.8489258,20.9896251 C21.8489258,23.1289 20.2877479,24.7594179 18.1492628,24.7594179 C16.00983,24.7594179 14.4319095,23.1465904 14.4319095,20.9896251 C14.4319095,18.8508241 16.00983,17.2022999 18.1492628,17.2022999 C20.2877479,17.2022999 21.8489258,18.8508241 21.8489258,20.9896251 Z M34.9112332,22.7430281 L29.1771742,15.2737303 C29.019856,15.0633409 28.9145033,14.9932111 28.7041139,14.9932111 L26.9508689,14.9932111 C26.7930768,14.9932111 26.6700338,15.1159383 26.6700338,15.2563558 L26.6700338,26.670455 C26.6700338,26.8108725 26.7930768,26.9335997 26.9508689,26.9335997 L28.8268411,26.9335997 C28.9672586,26.9335997 29.0899858,26.8108725 29.0899858,26.670455 L29.0899858,19.2014731 L34.8230971,26.670455 C34.9810471,26.8985348 35.1040902,26.9335997 35.3138478,26.9335997 L37.0672508,26.9335997 C37.2078263,26.9335997 37.3305534,26.8108725 37.3305534,26.670455 L37.3305534,15.2563558 C37.3305534,15.1159383 37.2078263,14.9932111 37.0672508,14.9932111 L35.174062,14.9932111 C35.0338024,14.9932111 34.9112332,15.1159383 34.9112332,15.2563558 L34.9112332,22.7430281 Z M43.7126813,27.1089242 C45.0099247,27.1089242 46.1672244,26.7581172 46.9909337,26.1095745 C47.8151168,25.4780904 48.3060254,24.5490285 48.3060254,23.3566639 C48.3060254,22.0591046 47.7276125,21.217547 46.9384943,20.6743569 C45.9391446,19.972743 44.6592757,19.7448211 43.6070128,19.4117046 C42.7130157,19.113495 42.0820055,18.7805363 42.0820055,18.1318357 C42.0820055,17.8162516 42.2222651,17.5357324 42.5203167,17.325027 C42.80052,17.1498605 43.2388313,17.0271333 43.8175601,17.0271333 C44.9396369,17.0271333 45.9391446,17.4303797 46.7454793,17.868691 C46.8858969,17.9563532 47.0086241,17.9037559 47.0789118,17.7810287 L47.8854045,16.080381 C47.9553764,15.9574959 47.9206274,15.8173943 47.7803678,15.7471065 C47.0086241,15.3261697 45.798727,14.8354191 43.9581356,14.8354191 C42.5376912,14.8354191 41.4152985,15.1683777 40.661719,15.7295741 C39.8375359,16.3433678 39.4165991,17.2201482 39.4165991,18.2368724 C39.4165991,19.622094 40.0477674,20.3933638 40.9070154,20.9547182 C41.9237396,21.5857284 43.1162621,21.8138082 44.0630144,22.1646152 C44.9221045,22.4623509 45.5532727,22.8482228 45.5532727,23.5670533 C45.5532727,23.9001698 45.4305456,24.3037321 45.0451475,24.5840934 C44.7644704,24.7944828 44.3084687,24.9345844 43.6773005,24.9345844 C42.292079,24.9345844 41.2751968,24.3561715 40.4687041,23.8477304 C40.3286025,23.7600682 40.2060333,23.8125076 40.1357455,23.9529251 L39.3292528,25.6534149 C39.258965,25.7936745 39.3115624,25.9165596 39.4342895,25.9868473 C40.345977,26.5301954 41.7664214,27.1089242 43.7126813,27.1089242 Z M58.1597364,21.9190029 C58.1597364,22.813 57.9670374,23.4969235 57.5813235,23.9701417 C57.0902569,24.5665609 56.3891169,24.7944828 55.494646,24.7944828 C54.6355559,24.7944828 53.9341,24.5665609 53.4435072,23.9701417 C53.039945,23.4969235 52.8469301,22.813 52.8469301,21.9190029 L52.8469301,15.2563558 C52.8469301,15.1159383 52.724045,14.9932111 52.5841013,14.9932111 L50.585244,14.9932111 C50.4453003,14.9932111 50.3220993,15.1159383 50.3220993,15.2563558 L50.3220993,22.2170546 C50.3220993,23.5670533 50.7081291,24.6889722 51.4269595,25.5133132 C52.3035821,26.5301954 53.706336,27.1089242 55.494646,27.1089242 C57.3003305,27.1089242 58.7034003,26.5301954 59.5973974,25.5133132 C60.3162278,24.6889722 60.6845672,23.5670533 60.6845672,22.2170546 L60.6845672,15.2563558 C60.6845672,15.1159383 60.5796884,14.9932111 60.4214225,14.9932111 L58.4402556,14.9932111 C58.2826215,14.9932111 58.1597364,15.1159383 58.1597364,15.2563558 L58.1597364,21.9190029 Z M63.5597312,14.9932111 C63.402413,14.9932111 63.2796858,15.1159383 63.2796858,15.2563558 L63.2796858,26.670455 C63.2796858,26.8108725 63.402413,26.9335997 63.5597312,26.9335997 L70.9066177,26.9335997 C71.0642518,26.9335997 71.1872949,26.8108725 71.1872949,26.670455 L71.1872949,24.9698073 C71.1872949,24.8118573 71.0642518,24.7069785 70.9066177,24.7069785 L65.8040428,24.7069785 L65.8040428,15.2563558 C65.8040428,15.1159383 65.699164,14.9932111 65.541214,14.9932111 L63.5597312,14.9932111 Z M69.9777137,14.9932111 C69.8369803,14.9932111 69.7142531,15.1159383 69.7142531,15.2563558 L69.7142531,16.9746939 C69.7142531,17.1147956 69.8369803,17.2375227 69.9777137,17.2375227 L73.5540177,17.2375227 L73.5540177,26.670455 C73.5540177,26.8108725 73.6769028,26.9335997 73.8171624,26.9335997 L75.8160197,26.9335997 C75.9559634,26.9335997 76.0788485,26.8108725 76.0788485,26.670455 L76.0788485,17.2375227 L79.6557843,17.2375227 C79.8134185,17.2375227 79.9366195,17.1147956 79.9366195,16.9746939 L79.9366195,15.2563558 C79.9366195,15.1159383 79.8134185,14.9932111 79.6557843,14.9932111 L69.9777137,14.9932111 Z" id="Fill-7"></path>
                            </g>
                        </g>
                    </g>
                </g>
            </g>
        </g>
    </g>
</svg>