<svg width="105" height="65" viewBox="0 0 105 65" fill="none" xmlns="http://www.w3.org/2000/svg">
<rect width="104" height="64.3636" transform="translate(0.994141 0.484375)" fill="#024190"/>
<g clip-path="url(#clip0_18_3862)">
<path d="M43.0693 56.5987C51.3446 56.5987 60.45 42.9585 59.8691 30.3936C59.382 17.7545 52.6666 11.4922 43.0693 11.4922C33.472 11.4922 26.7518 17.7545 26.2695 30.3936C25.6838 42.9585 33.4255 56.5987 43.0693 56.5987Z" fill="#174093"/>
<path d="M27.9858 34.1025H26.334C26.9917 42.5459 31.0867 50.818 36.7018 54.542V42.955C36.7018 38.0663 32.8001 34.1025 27.9858 34.1025Z" fill="#31559F"/>
<path d="M36.7018 23.7311V12.5811C30.6062 14.8709 26.6363 20.7886 26.2695 30.3928C26.2354 31.1205 26.2326 31.8511 26.2534 32.5826H27.9858C32.8001 32.5836 36.7018 28.6198 36.7018 23.7311Z" fill="#31559F"/>
<path d="M46.9142 32.5833H50.1146H59.5859C59.6863 32.5833 59.782 32.6045 59.8702 32.6411C59.9014 31.8903 59.9043 31.1395 59.8692 30.3936C59.7602 27.5579 59.3376 25.0438 58.6391 22.8492C56.2244 15.2605 50.5145 11.4932 43.0694 11.4932C41.3455 11.4932 39.7165 11.6982 38.1982 12.1034V23.7318C38.1982 28.6196 42.1009 32.5833 46.9142 32.5833Z" fill="#31559F"/>
<path d="M46.9142 34.1031C42.0999 34.1031 38.1982 38.0669 38.1982 42.9556V55.407C39.7411 56.1693 41.3749 56.5986 43.0694 56.5986C50.5401 56.5986 58.6837 45.4832 59.7707 34.0771C59.711 34.0925 59.6494 34.1031 59.5859 34.1031H46.9142Z" fill="#31559F"/>
<path d="M63.6358 56.5987C71.9111 56.5987 81.0165 42.9585 80.4356 30.3936C79.9485 17.7545 73.2331 11.4922 63.6358 11.4922C54.0385 11.4922 47.3183 17.7535 46.836 30.3936C46.2493 42.9585 53.9911 56.5987 63.6358 56.5987Z" stroke="#FFC43C" stroke-width="1.24949" stroke-miterlimit="10"/>
<path d="M63.6047 53.105C69.9789 53.105 76.9615 43.0398 77.1264 33.3104C64.1202 39.0847 63.1033 29.0195 63.1033 29.0195L65.8716 27.566L63.1526 26.5967C63.1526 26.5967 62.6816 22.0064 57.1632 22.9843C51.5357 23.9815 50.0801 29.8674 50.0801 33.5925C50.2715 43.2342 56.2477 53.105 63.6047 53.105Z" stroke="#FFC43C" stroke-width="1.24949" stroke-miterlimit="10"/>
<path d="M59.6443 26.4436C59.6443 27.1019 59.1183 27.6361 58.4701 27.6361C57.8219 27.6361 57.2959 27.1019 57.2959 26.4436C57.2959 25.7842 57.8219 25.251 58.4701 25.251C59.1183 25.251 59.6443 25.7852 59.6443 26.4436Z" stroke="#FFC43C" stroke-width="1.24949" stroke-miterlimit="10"/>
</g>
<defs>
<clipPath id="clip0_18_3862">
<rect width="56" height="48.3636" fill="white" transform="translate(24.9941 8.48438)"/>
</clipPath>
</defs>
</svg>
