
<svg width="1150" height="276" viewBox="0 0 1150 276" fill="none" xmlns="http://www.w3.org/2000/svg">
<rect width="1150" height="276" fill="#F5F5F5"/>
<g clip-path="url(#clip0_0_1)">
<rect width="1149" height="276" transform="translate(0.158203)" fill="#024190"/>
<g clip-path="url(#clip1_0_1)">
<path d="M929.58 444.921C1001.66 444.921 1080.97 327.281 1075.91 218.913C1071.67 109.906 1013.18 55.8967 929.58 55.8967C845.984 55.8967 787.449 109.906 783.247 218.913C778.146 327.281 845.579 444.921 929.58 444.921Z" fill="#174093"/>
<path d="M798.197 250.907H783.809C789.538 323.728 825.207 395.071 874.116 427.189V327.256C874.116 285.093 840.131 250.907 798.197 250.907Z" fill="#31559F"/>
<path d="M874.116 161.45V65.2856C821.021 85.0349 786.442 136.072 783.247 218.905C782.95 225.181 782.925 231.481 783.107 237.791H798.197C840.131 237.799 874.116 203.613 874.116 161.45Z" fill="#31559F"/>
<path d="M963.07 237.799H990.946H1073.44C1074.32 237.799 1075.15 237.982 1075.92 238.297C1076.19 231.822 1076.22 225.347 1075.91 218.913C1074.96 194.457 1071.28 172.773 1065.2 153.846C1044.16 88.3971 994.43 55.905 929.58 55.905C914.565 55.905 900.375 57.6733 887.15 61.1682V161.458C887.15 203.613 921.144 237.799 963.07 237.799Z" fill="#31559F"/>
<path d="M963.07 250.907C921.135 250.907 887.15 285.092 887.15 327.256V434.644C900.589 441.218 914.82 444.921 929.58 444.921C994.653 444.921 1065.59 349.055 1075.05 250.683C1074.53 250.816 1074 250.907 1073.44 250.907H963.07Z" fill="#31559F"/>
<path d="M1108.73 444.921C1180.81 444.921 1260.12 327.281 1255.06 218.913C1250.82 109.906 1192.32 55.8967 1108.73 55.8967C1025.13 55.8967 966.594 109.898 962.392 218.913C957.283 327.281 1024.72 444.921 1108.73 444.921Z" stroke="#FFC41E" stroke-width="1.864" stroke-miterlimit="10"/>
<path d="M1108.45 414.787C1163.97 414.787 1224.8 327.978 1226.23 244.067C1112.94 293.867 1104.09 207.059 1104.09 207.059L1128.2 194.523L1104.52 186.164C1104.52 186.164 1100.41 146.574 1052.34 155.008C1003.33 163.609 990.649 214.372 990.649 246.499C992.316 329.655 1044.37 414.787 1108.45 414.787Z" stroke="#FFC41E" stroke-width="1.864" stroke-miterlimit="10"/>
<path d="M1073.96 184.844C1073.96 190.522 1069.38 195.129 1063.73 195.129C1058.08 195.129 1053.5 190.522 1053.5 184.844C1053.5 179.157 1058.08 174.558 1063.73 174.558C1069.38 174.558 1073.96 179.166 1073.96 184.844Z" stroke="#FFC41E" stroke-width="1.864" stroke-miterlimit="10"/>
</g>
</g>
<defs>
<clipPath id="clip0_0_1">
<rect width="1149" height="276" fill="white" transform="translate(0.158203)"/>
</clipPath>
<clipPath id="clip1_0_1">
<rect width="473" height="391" fill="white" transform="translate(783 55)"/>
</clipPath>
</defs>
</svg>
