<svg id="yellow-icon" xmlns="http://www.w3.org/2000/svg" width="111.894" height="119.196" viewBox="0 0 111.894 119.196">
  <path id="Path_109" data-name="Path 109" d="M23.16,25.191a13.339,13.339,0,0,0,3.5-2.061V72.422a1.737,1.737,0,0,1-1.737,1.767,1.767,1.767,0,0,1-1.767-1.767Z" transform="translate(45.036 44.978)" fill="#fde023"/>
  <path id="Path_110" data-name="Path 110" d="M11.22,17.741a11.117,11.117,0,1,0,.029,0" transform="translate(21.818 12.912)" fill="#fde023"/>
  <path id="Path_111" data-name="Path 111" d="M62.164,26.935a5.889,5.889,0,0,1-1.8,4.387l-4.976,4.947a10.012,10.012,0,0,1-7.008,3.3,7.626,7.626,0,0,1-5.418-2.326l-.618-.648L39.4,33.649v16.46l3.563,32.979a5.654,5.654,0,0,1-3.887,6.8h0a5.359,5.359,0,0,1-1.531.236,5.654,5.654,0,0,1-5.418-4.093v-.265l-3.887-29L24.474,85.826v.265a5.654,5.654,0,0,1-5.418,4.093,5.889,5.889,0,0,1-1.561-.236h0a5.624,5.624,0,0,1-3.975-6.861l3.651-33.009v-.442a6.36,6.36,0,0,1-2.768.648,6.773,6.773,0,0,1-1.325-.147A6.331,6.331,0,0,1,8.19,43.9V25.551A10.659,10.659,0,0,1,18.85,14.921H33.572a11.072,11.072,0,0,1,7.98,3.18l7.126,7.126,2.945-2.945a6.066,6.066,0,0,1,4.387-1.826A6.184,6.184,0,0,1,60.4,22.283h0a6.154,6.154,0,0,1,1.767,4.652" transform="translate(15.926 29.011)" fill="#fde023"/>
  <path id="Path_112" data-name="Path 112" d="M3.05,17.741a11.1,11.1,0,1,1,11.1,11.1,11.1,11.1,0,0,1-11.1-11.1" transform="translate(5.931 12.912)" fill="#fde023"/>
  <path id="Path_113" data-name="Path 113" d="M27.885,88.379a7.273,7.273,0,0,0,1.325,1.8,5.712,5.712,0,0,1-5.3-4.093.854.854,0,0,1,0-.265L20.082,56.784,16.313,85.847a.854.854,0,0,1,0,.265A5.654,5.654,0,0,1,10.9,90.2a5.536,5.536,0,0,1-1.531-.236h0a5.477,5.477,0,0,1-3.475-2.738,5.447,5.447,0,0,1-.53-4.122L8.981,50.1v-.442a6.36,6.36,0,0,1-2.768.648,6.772,6.772,0,0,1-1.325-.147A6.331,6.331,0,0,1,0,43.916V25.572A10.659,10.659,0,0,1,10.66,14.942H25.382a10.718,10.718,0,0,1,1.678,0,12.927,12.927,0,0,0-5.389,10.512V43.8a8.657,8.657,0,0,0,6.743,8.539,9.275,9.275,0,0,0,1.8.177h.147L27.09,82.7a7.8,7.8,0,0,0,.8,5.683" transform="translate(0 28.991)" fill="#fde023"/>
  <path id="Path_114" data-name="Path 114" d="M66.877,33.332V68.108a1.767,1.767,0,0,1-1.767,1.767,1.737,1.737,0,0,1-1.737-1.767c0-.236-1.031-1.5-5.712-2.709a55.183,55.183,0,0,0-6.743-1.237,1.767,1.767,0,0,1-1.561-1.737v-7.45a7.95,7.95,0,0,0-5.595-7.656,31.33,31.33,0,0,0-11.778-1.885c-2.179,0-4.093.147-5.33.265v1.649a8.834,8.834,0,0,0-3.5.8V1.767A1.767,1.767,0,0,1,24.917,0a1.737,1.737,0,0,1,1.737,1.767v7.6c1.325,0,3.18-.236,5.33-.236a34.157,34.157,0,0,1,13.162,2.15A11.4,11.4,0,0,1,52.89,22.173v3.916a56.947,56.947,0,0,1,5.683,1.148c5.654,1.443,8.3,3.416,8.3,6.1" transform="translate(45.017 0)" fill="#fde023"/>
  <path id="Path_115" data-name="Path 115" d="M40.35,17.528A11.513,11.513,0,0,1,37.406,16.2c-.353-.236-.353-.206,0,0a12.279,12.279,0,0,0,1.649,1.089h-1.59c-.206,0-.265,0-.177.147a1.325,1.325,0,0,0,.618.589,4.034,4.034,0,0,1-1.59-.324.766.766,0,0,0-.824.236,3.327,3.327,0,0,0-.324.648s0,.412-.648.265a5.389,5.389,0,0,1-3.975-4.594c0-.5-.206-.53,0,0a5.889,5.889,0,0,0,5.094,5.359c.618,0,.442-.177.383-.294a1.237,1.237,0,0,1-.088-.8c0-.147.236-.206.442-.206a9.04,9.04,0,0,0,2.945.294h0a2.356,2.356,0,0,1-1.59-.707h2.738c.236,0,.265,0,0-.147m-7.479,4.888A8.48,8.48,0,0,1,27.806,12.64c0-3.386,4.976,2.68-.236-.736-.442-.324-1.207,0-1.649,0s-.53,0-.471-.206a3.946,3.946,0,0,1,.648-1.031c.648-.8.147.53,0-.177-.618-5.889,8.834-6.743,8.834-.913,0,.559-.412.648-.353.736s.53,0,1,0c4.682,1.089,6.066,6.831,6.154,7.244s.412-.236.5-.265-.177.383.147.206.5-.294.559,0,0,.236-.147.353.265,0,.206.147a7.452,7.452,0,0,1-.648.824,17.667,17.667,0,0,1-4,4.24,1.354,1.354,0,0,1-.972.442A10.482,10.482,0,0,1,32.989,22.651Zm-4-14.163a.913.913,0,0,0-1.148,0c-.383.324-.5.8-.236,1.089a.913.913,0,0,0,1.178,0,.766.766,0,0,0,.206-1.089Z" transform="translate(49.459 10.917)" fill="#0f3f93"/>
  <path id="Path_116" data-name="Path 116" d="M29.763,13.215c-.589.324-1.973.589-2,.824s1.973-.353,2.12-.294,0,.5.265.471.736-.5.972-.5a3.81,3.81,0,0,1,1.089.206c.854.206.5,0,0-.618s0-.707.559-1.3c0,0,.177-.236,0-.206h-1.06a.471.471,0,0,0-.383.177,10.335,10.335,0,0,1-1.561,1.237" transform="translate(53.981 22.944)" fill="#0f3f93"/>
  <path id="Path_117" data-name="Path 117" d="M30.512,13.634h.442v-.177a2,2,0,0,1,.471-1.384s.147,0,0-.177a2.179,2.179,0,0,1-.8-.147.265.265,0,0,0-.294,0,8.833,8.833,0,0,1-1.678,1.413c-.324.206-2.061.707-1.943.942s2.238-.383,2.356-.294-.177.5,0,.5.618-.53,1.148-.589h.294" transform="translate(51.936 22.761)" fill="#0f3f93"/>
</svg>
