<svg width="940" height="174" viewBox="0 0 940 174" fill="none" xmlns="http://www.w3.org/2000/svg">
    <g clip-path="url(#clip0_1_86)">
        <rect width="940" height="174" fill="#024190"/>
        <path d="M0.306538 190.119V156.258C-18.5025 163.212 -30.7379 181.191 -31.8811 210.357C-31.99 212.562 -31.99 214.794 -31.9355 217.013H-26.5868C-11.7383 216.999 0.306538 204.968 0.306538 190.119Z" stroke="white" stroke-opacity="0.5" stroke-width="0.193" stroke-miterlimit="10"/>
        <path d="M31.7993 216.999H41.6665H70.8872C71.2002 216.999 71.4996 217.067 71.7582 217.176C71.8535 214.889 71.8671 212.616 71.7582 210.344C71.418 201.728 70.1114 194.093 67.961 187.424C60.5163 164.383 42.905 152.937 19.9314 152.937C14.6099 152.937 9.58784 153.563 4.90601 154.788V190.106C4.91962 204.968 16.9508 216.999 31.7993 216.999Z" stroke="white" stroke-opacity="0.5" stroke-width="0.193" stroke-miterlimit="10"/>
        <path d="M80.536 289.936C106.068 289.936 134.146 248.507 132.363 210.345C130.866 171.965 110.151 152.938 80.536 152.938C50.9343 152.938 30.2064 171.951 28.7093 210.345C26.8992 248.521 50.7846 289.936 80.536 289.936Z" stroke="white" stroke-opacity="0.5" stroke-width="0.193" stroke-miterlimit="10"/>
        <path d="M123.217 114.829H128.307C126.279 140.47 113.649 165.595 96.3238 176.904V141.709C96.3374 126.861 108.369 114.829 123.217 114.829Z" stroke="white" stroke-opacity="0.5" stroke-width="0.193" stroke-miterlimit="10"/>
        <path d="M96.3381 83.3221V49.4605C115.134 56.4152 127.382 74.394 128.512 103.56C128.621 105.765 128.621 107.997 128.567 110.215H123.218C108.369 110.215 96.3381 98.1706 96.3381 83.3221Z" stroke="white" stroke-opacity="0.5" stroke-width="0.193" stroke-miterlimit="10"/>
        <path d="M64.8313 110.215H54.964H25.7434C25.4304 110.215 25.131 110.283 24.8724 110.392C24.7771 108.106 24.7635 105.833 24.8724 103.56C25.2126 94.945 26.5192 87.3098 28.6695 80.6409C36.1142 57.5992 53.7256 46.1532 76.6992 46.1532C82.0207 46.1532 87.0428 46.7793 91.7246 48.0042V83.3221C91.7246 98.1706 79.6798 110.215 64.8313 110.215Z" stroke="white" stroke-opacity="0.5" stroke-width="0.193" stroke-miterlimit="10"/>
        <path d="M64.83 114.829C79.6785 114.829 91.7097 126.86 91.7097 141.722V179.544C86.9462 181.858 81.9106 183.165 76.6843 183.165C53.6426 183.165 28.5186 149.412 25.1705 114.761C25.361 114.815 25.538 114.843 25.7422 114.843H64.83V114.829Z" stroke="white" stroke-opacity="0.5" stroke-width="0.193" stroke-miterlimit="10"/>
        <path d="M16.1071 183.151C-9.42519 183.151 -37.5026 141.723 -35.7197 103.56C-34.2226 65.1664 -13.5082 46.1532 16.1071 46.1532C45.7088 46.1532 66.4369 65.1664 67.934 103.56C69.7305 141.723 45.8586 183.151 16.1071 183.151Z" stroke="white" stroke-opacity="0.5" stroke-width="0.193" stroke-miterlimit="10"/>
        <path d="M16.2024 172.535C-3.464 172.535 -24.995 141.967 -25.5122 112.42C14.61 129.95 17.7404 99.3815 17.7404 99.3815L9.20687 94.9719L17.5906 92.0321C17.5906 92.0321 19.0469 78.0955 36.073 81.0625C53.4257 84.0975 57.917 101.967 57.917 113.277C57.3317 142.552 38.8903 172.535 16.2024 172.535Z" stroke="white" stroke-opacity="0.5" stroke-width="0.193" stroke-miterlimit="10"/>
        <path d="M32.6463 95.1347C34.6199 94.8144 35.9602 92.9548 35.6399 90.9812C35.3196 89.0076 33.46 87.6673 31.4864 87.9876C29.5127 88.3079 28.1725 90.1675 28.4928 92.1411C28.8131 94.1147 30.6727 95.455 32.6463 95.1347Z" stroke="white" stroke-opacity="0.5" stroke-width="0.193" stroke-miterlimit="10"/>
        <path d="M-22.8988 9.50136H-27.9889C-25.961 35.1426 -13.331 60.2666 3.99453 71.5765V36.3811C3.98092 21.5326 -8.05031 9.50136 -22.8988 9.50136Z" stroke="white" stroke-opacity="0.5" stroke-width="0.193" stroke-miterlimit="10"/>
        <path d="M3.98024 -22.0053V-55.8669C-14.8288 -48.9122 -27.0641 -30.9334 -28.2073 -1.76724C-28.3162 0.437581 -28.3162 2.65599 -28.2618 4.88802H-22.913C-8.05091 4.88802 3.98024 -7.15682 3.98024 -22.0053Z" stroke="white" stroke-opacity="0.5" stroke-width="0.193" stroke-miterlimit="10"/>
        <path d="M35.487 4.88751H45.3543H74.5749C74.8879 4.88751 75.1873 4.95557 75.4595 5.06445C75.5548 2.77797 75.5684 0.505118 75.4595 -1.76775C75.1193 -10.3829 73.8128 -18.0181 71.6624 -24.687C64.2177 -47.7287 46.6064 -59.1747 23.6327 -59.1747C18.3112 -59.1747 13.2891 -58.5486 8.60731 -57.3237V-22.0058C8.5937 -7.15734 20.6385 4.88751 35.487 4.88751Z" stroke="white" stroke-opacity="0.5" stroke-width="0.193" stroke-miterlimit="10"/>
        <path d="M35.4874 9.50165C20.6389 9.50165 8.59409 21.5465 8.59409 36.3949V74.2171C13.3576 76.5308 18.3933 77.8374 23.6196 77.8374C46.6613 77.8374 71.7853 44.0846 75.1333 9.43358C74.9428 9.48802 74.7659 9.51524 74.5617 9.51524H35.4874V9.50165Z" stroke="white" stroke-opacity="0.5" stroke-width="0.193" stroke-miterlimit="10"/>
        <path d="M84.2118 77.8234C109.744 77.8234 137.822 36.3946 136.039 -1.76775C134.542 -40.1615 113.827 -59.1747 84.2118 -59.1747C54.6101 -59.1747 33.8821 -40.1615 32.385 -1.76775C30.5884 36.3946 54.4604 77.8234 84.2118 77.8234Z" stroke="white" stroke-opacity="0.5" stroke-width="0.193" stroke-miterlimit="10"/>
        <path d="M84.1162 67.2078C103.783 67.2078 125.314 36.6397 125.831 7.09247C85.7086 24.6357 82.5783 -5.94587 82.5783 -5.94587L91.1117 -10.3555L82.728 -13.2953C82.728 -13.2953 81.2717 -27.2319 64.2456 -24.2649C46.8929 -21.2435 42.4016 -3.35999 42.4016 7.94991C42.9869 37.225 61.4283 67.2078 84.1162 67.2078Z" stroke="white" stroke-opacity="0.5" stroke-width="0.193" stroke-miterlimit="10"/>
    </g>
    <defs>
        <clipPath id="clip0_1_86">
            <rect width="940" height="174" fill="white"/>
        </clipPath>
    </defs>
</svg>
