<?xml version="1.0" encoding="UTF-8"?>
<svg width="32px" height="26px" viewBox="0 0 32 26" version="1.1" xmlns="http://www.w3.org/2000/svg" xmlns:xlink="http://www.w3.org/1999/xlink">
    <!-- Generator: sketchtool 52.3 (67297) - http://www.bohemiancoding.com/sketch -->
    <title>5CB749E9-09D8-4D45-BA49-CB4971CE7009@2x</title>
    <desc>Created with sketchtool.</desc>
    <g id="Page-1" stroke="none" stroke-width="1" fill="none" fill-rule="evenodd">
        <g id="ressources1" transform="translate(-1517.000000, -834.000000)" fill="#0f3f93" fill-rule="nonzero" stroke="#0f3f93">
            <g id="docs/UX-Copy-7" transform="translate(404.000000, 827.000000)">
                <path d="M1129.08645,27.0436949 C1128.98808,27.0436949 1128.87003,27.0067291 1128.8091,26.9566755 L1120.33724,19.9951282 C1120.18206,19.8698552 1120.17301,19.6339979 1120.31824,19.5001622 C1120.46349,19.3662916 1120.73683,19.3585295 1120.89194,19.4838026 L1128.68303,25.8906886 L1128.68303,7.89944669 C1128.68021,7.71555742 1128.8733,7.54642662 1129.08645,7.54642662 C1129.2996,7.54642662 1129.49289,7.71555742 1129.48987,7.89944669 L1129.48987,25.8906886 L1137.28095,19.483907 C1137.43607,19.3585295 1137.7094,19.3662916 1137.85465,19.5002666 C1137.9999,19.6341024 1137.99085,19.8699596 1137.83565,19.9952326 L1129.36379,26.95678 C1129.27829,27.027022 1129.16509,27.0947926 1129.08644,27.0437993 C1129.08641,27.0437645 1129.08645,27.0436949 1129.08645,27.0436949 Z M1114.70028,31.268229 C1114.44789,31.268229 1114.35878,31.4322937 1114.35775,31.5768534 C1114.35673,31.7232648 1114.52015,31.8854777 1114.70028,31.8854777 L1143.47262,31.8854777 C1143.65362,31.8854777 1143.81619,31.7232648 1143.81515,31.5768534 C1143.81412,31.4322937 1143.6536,31.268229 1143.47262,31.268229 L1114.70028,31.268229 Z" id="Shape"></path>
            </g>
        </g>
    </g>
</svg>