<?xml version="1.0" encoding="UTF-8"?>
<svg width="460px" height="313px" viewBox="0 0 460 313" version="1.1" xmlns="http://www.w3.org/2000/svg" xmlns:xlink="http://www.w3.org/1999/xlink">
    <!-- Generator: sketchtool 52.3 (67297) - http://www.bohemiancoding.com/sketch -->
    <title>B6ECB29C-79E2-416B-8611-F6079E0B61DA@2x</title>
    <desc>Created with sketchtool.</desc>
    <g id="Page-1" stroke="none" stroke-width="1" fill="none" fill-rule="evenodd">
        <g id="Home" transform="translate(-601.000000, -5230.000000)">
            <rect fill="#FFFFFF" x="0" y="0" width="1920" height="6279"></rect>
            <g id="Logos" transform="translate(184.000000, 5194.000000)">
                <g id="Group-11" style="mix-blend-mode: multiply;" transform="translate(0.000000, 136.000000)">
                    <g id="Atoms-/-Logo_press-/-Card" transform="translate(517.029912, 0.000000)">
                        <polygon id="Rectangle-5" points="0 0 258.371472 0 258.371472 112.840003 0 112.840003"></polygon>
                        <g id="Atoms-/-Logo-/-Press-/-#3" transform="translate(48.271884, 20.020001)" fill="#484848" fill-rule="evenodd" stroke-width="1">
                            <g id="Logo-#6" transform="translate(25.480001, 21.840001)">
                                <path d="M28.8025081,21.7225322 C26.3185065,26.4208021 21.3799076,29.6294353 15.7060971,29.6294353 L1.28462098,29.6294353 L1.28462098,21.7225322 L28.8025081,21.7225322" id="Fill-2"></path>
                                <path d="M28.8021543,7.92933674 L0.0107921609,7.92933674 L0.0107921609,0.0224689251 L15.7060971,0.0224689251 C21.3799076,0.0224689251 26.3181173,3.23110219 28.8021543,7.92933674" id="Fill-3"></path>
                                <path d="M30.3286258,14.8261291 C30.3286258,16.0569662 30.1674511,17.2889709 29.8482862,18.5021514 L3.37532792,18.5021514 L3.37532792,11.1501421 L29.8482862,11.1501421 C30.1674511,12.3629333 30.3286258,13.5949027 30.3286258,14.8261291" id="Fill-4"></path>
                                <path d="M49.5551966,7.01670915 L49.5551966,19.9533608 L47.4453822,19.9533608 L47.297335,18.6948533 C46.5940399,19.7867723 45.4650737,20.1569258 44.3546489,20.1569258 C41.6710807,20.1569258 39.6537959,18.3802176 39.6537959,15.3820492 C39.6537959,12.2357981 41.6340689,10.6071372 44.2991311,10.6071372 C45.2615088,10.6071372 46.760593,11.1253733 47.297335,12.0692096 L47.297335,7.01670915 L49.5551966,7.01670915 Z M41.9116575,15.3820492 C41.9116575,16.9736629 43.0591296,18.0656173 44.5026961,18.0656173 C45.9277921,18.0656173 47.1492524,17.029216 47.1492524,15.3820492 C47.1492524,13.7904001 45.9277921,12.716987 44.5026961,12.716987 C43.0591296,12.716987 41.9116575,13.7348824 41.9116575,15.3820492 Z" id="Fill-5"></path>
                                <polyline id="Fill-6" points="60.7150693 10.8292434 55.1443682 23.7658597 52.664365 23.7658597 54.3670496 19.8053136 50.7211038 10.8292434 53.3491542 10.8292434 54.737203 14.771319 55.6070511 17.3438163 56.5509229 14.8268014 58.2165603 10.8292434 60.7150693 10.8292434"></polyline>
                                <path d="M68.6175495,19.9533608 L68.6175495,15.1784843 C68.6175495,13.7904001 67.8587368,12.7354929 66.4152056,12.7354929 C65.0271214,12.7354929 64.0832497,13.9014709 64.0832497,15.2895197 L64.0832497,19.9533608 L61.8438586,19.9533608 L61.8438586,10.8107021 L63.8611788,10.8107021 L64.0091907,12.0507037 C64.9345919,11.1438438 65.8599578,10.6811608 67.0074299,10.6811608 C69.1542915,10.6811608 70.8754465,12.2913159 70.8754465,15.159943 L70.8754465,19.9533608 L68.6175495,19.9533608" id="Fill-7"></path>
                                <path d="M80.0550462,10.8292434 L82.2203783,10.8292434 L82.2203783,19.9533608 L80.092058,19.9533608 L79.9810226,18.6208297 C79.462822,19.6942428 78.037726,20.2124435 77.019866,20.2309848 C74.3177566,20.2494553 72.3189776,18.5838179 72.3189776,15.3820492 C72.3189776,12.2357981 74.4102861,10.5886313 77.0753483,10.6071372 C78.2968794,10.6071372 79.462822,11.1808556 79.9810226,12.0877155 L80.0550462,10.8292434 Z M74.5768746,15.3820492 C74.5768746,17.1217455 75.7798644,18.1581468 77.2789486,18.1581468 C80.8323649,18.1581468 80.8323649,12.6244575 77.2789486,12.6244575 C75.7798644,12.6244575 74.5768746,13.6423529 74.5768746,15.3820492 Z" id="Fill-8"></path>
                                <path d="M90.3738381,19.9533608 L90.3738381,15.0674135 C90.3738381,13.8644237 89.7446021,12.7725047 88.5046359,12.7725047 C87.2831048,12.7725047 86.5613392,13.8644237 86.5613392,15.0674135 L86.5613392,19.9533608 L84.3034423,19.9533608 L84.3034423,10.8107021 L86.3947861,10.8107021 L86.5613392,11.9211624 C87.0425635,10.9957966 88.0974353,10.6626549 88.9672834,10.6626549 C90.0592378,10.6626549 91.1511568,11.106832 91.6693574,12.3653395 C92.4836879,11.0698202 93.5386305,10.6996667 94.723079,10.6996667 C97.3141176,10.6996667 98.591131,12.2913159 98.591131,15.0304017 L98.591131,19.9533608 L96.333234,19.9533608 L96.333234,15.0304017 C96.333234,13.8274119 95.8335392,12.8095165 94.6120082,12.8095165 C93.3905479,12.8095165 92.6317705,13.8644237 92.6317705,15.0674135 L92.6317705,19.9533608 L90.3738381,19.9533608" id="Fill-9"></path>
                                <path d="M103.170581,8.25671074 C103.170581,10.014913 100.505519,10.014913 100.505519,8.25671074 C100.505519,6.49850851 103.170581,6.49850851 103.170581,8.25671074 Z M100.709119,19.9533608 L102.967016,19.9533608 L102.967016,10.7921962 L100.709119,10.7921962 L100.709119,19.9533608 Z" id="Fill-10"></path>
                                <path d="M112.831334,18.7873829 C111.776392,19.8238195 110.665967,20.2309848 109.31493,20.2309848 C106.668373,20.2309848 104.466029,18.6393356 104.466029,15.4005551 C104.466029,12.1617745 106.668373,10.5701254 109.31493,10.5701254 C110.610449,10.5701254 111.609838,10.9402788 112.609263,11.9211624 L111.184167,13.4202466 C110.647461,12.9390578 109.981178,12.6984811 109.351941,12.6984811 C107.834351,12.6984811 106.723891,13.808906 106.723891,15.4005551 C106.723891,17.1402514 107.908375,18.0656173 109.31493,18.0656173 C110.036695,18.0656173 110.758496,17.8620524 111.313709,17.3068045 L112.831334,18.7873829" id="Fill-11"></path>
                            </g>
                        </g>
                    </g>
                </g>
            </g>
        </g>
    </g>
</svg>