<?xml version="1.0" encoding="UTF-8"?>
<svg width="448px" height="595px" viewBox="0 0 448 595" version="1.1" xmlns="http://www.w3.org/2000/svg" xmlns:xlink="http://www.w3.org/1999/xlink">
    <!-- Generator: sketchtool 52.3 (67297) - http://www.bohemiancoding.com/sketch -->
    <title>59FF6425-FF67-4F5A-B7CC-D82AC24134E2@2x</title>
    <desc>Created with sketchtool.</desc>
    <g id="Page-1" stroke="none" stroke-width="1" fill="none" fill-rule="evenodd" opacity="0.314608">
        <g id="Details-Single-Stage-incubators-and-hatchers" transform="translate(-956.000000, -3803.000000)" fill="#BBBBBB">
            <g id="Group-5" transform="translate(956.000000, 3803.000000)">
                <path d="M22.3163734,302 C63.2260746,301.882471 138.102783,299.722185 172.816255,257.882024 C203.471872,220.933289 214.691311,97.0693978 215,2 C106.021585,11.0441012 18.6177188,148.709201 1,301.98321 L22.3163734,302" id="Fill-23" opacity="0.401529948"></path>
                <g id="Group-27" opacity="0.401529948">
                    <path d="M275.507415,258.109369 C311.051662,301.616696 387.553775,302.477949 430.529242,302.494836 L445.563986,302.494836 C428.12813,148.358773 341.610265,9.91101689 233.732504,0.746839317 C234.032643,96.374019 245.143346,220.951669 275.507415,258.109369" id="Fill-24"></path>
                    <path d="M447.142496,325.09005 L447.142496,325.095679 L433.163797,325.118196 C390.955351,324.977468 311.774219,325.562895 275.507415,369.95962 C241.702863,411.339147 234.9942,551.24484 233.738062,594.206145 C352.587574,588.71777 451.044303,477.199637 447.164728,325.09005 L447.142496,325.09005" id="Fill-26"></path>
                    <path d="M170.458264,368.642913 C134.338901,324.173078 54.8288928,324.145 16.6202077,324.133769 L0.247419595,324.128153 L0.247419595,324.105691 L0.109601513,324.105691 C-3.73276662,475.895014 93.9692281,587.162259 211.891892,592.581301 C210.657042,549.987072 204.041774,409.984867 170.458264,368.642913" id="Fill-28"></path>
                </g>
            </g>
        </g>
    </g>
</svg>