<svg width="14" height="11" viewBox="0 0 14 11" fill="none" xmlns="http://www.w3.org/2000/svg">
<path d="M1.05 11C0.77 11 0.525 10.8969 0.315 10.6906C0.105 10.4844 0 10.2437 0 9.96875V1.03125C0 0.75625 0.105 0.515625 0.315 0.309375C0.525 0.103125 0.77 0 1.05 0H12.95C13.23 0 13.475 0.103125 13.685 0.309375C13.895 0.515625 14 0.75625 14 1.03125V9.96875C14 10.2437 13.895 10.4844 13.685 10.6906C13.475 10.8969 13.23 11 12.95 11H1.05ZM7 5.80937L12.95 1.97656V1.03125L7 4.77812L1.05 1.03125V1.97656L7 5.80937Z" fill="white"/>
</svg>
