<?xml version="1.0" encoding="UTF-8"?>
<svg width="460px" height="313px" viewBox="0 0 460 313" version="1.1" xmlns="http://www.w3.org/2000/svg" xmlns:xlink="http://www.w3.org/1999/xlink">
    <!-- Generator: sketchtool 52.3 (67297) - http://www.bohemiancoding.com/sketch -->
    <title>80C816DF-F25E-42B2-9ECC-C8AA7D98204A@2x</title>
    <desc>Created with sketchtool.</desc>
    <g id="Page-1" stroke="none" stroke-width="1" fill="none" fill-rule="evenodd">
        <g id="Home" transform="translate(-859.000000, -5230.000000)">
            <rect fill="#FFFFFF" x="0" y="0" width="1920" height="6279"></rect>
            <g id="Logos" transform="translate(184.000000, 5194.000000)">
                <g id="Group-11" style="mix-blend-mode: multiply;" transform="translate(0.000000, 136.000000)">
                    <g id="Atoms-/-Logo_press-/-Card" transform="translate(775.544868, 0.000000)">
                        <polygon id="Rectangle-5" points="0 0 258.371472 0 258.371472 112.840003 0 112.840003"></polygon>
                        <g id="Atoms-/-Logo-/-Press-/-#6" transform="translate(48.271884, 20.020001)" fill="#484848" fill-rule="evenodd" stroke-width="1">
                            <g id="Logo-#3" transform="translate(36.400001, 22.750001)">
                                <path d="M0,27.683166 L0,1.53683941 L16.0177276,1.53683941 L16.0177276,7.27805026 L6.94836937,7.27805026 L6.94836937,11.8121026 L15.4987622,11.8121026 L15.4987622,17.4079029 L6.94836937,17.4079029 L6.94836937,27.683166 L0,27.683166 Z M18.3931849,27.683166 L18.3931849,9.65476113 L24.397639,9.65476113 L24.397639,13.9030064 C25.0193946,12.3486175 25.8605196,11.190347 26.9322959,10.4169131 C28.0053257,9.64222573 29.3039926,9.25237495 30.8270431,9.25237495 C31.077751,9.25237495 31.333473,9.25864265 31.5891951,9.2761922 C31.8449171,9.29499529 32.1006392,9.32633378 32.3638825,9.36268643 L31.7421269,15.1402499 C31.3648115,15.0123889 30.9862426,14.9208805 30.620209,14.8607106 C30.2491614,14.8043013 29.8956632,14.7742164 29.5484328,14.7742164 C28.0053257,14.7742164 26.8182238,15.2493079 25.9758452,16.1944766 C25.1409879,17.1396454 24.7210522,18.4796791 24.7210522,20.2170848 L24.7210522,27.683166 L18.3931849,27.683166 Z M46.0349841,16.3474084 C45.9121372,15.3232667 45.5222865,14.4996912 44.8641782,13.8779357 C44.1998023,13.2574336 43.3887623,12.9453023 42.4197762,12.9453023 C41.3843526,12.9453023 40.555763,13.2260951 39.9390216,13.7939485 C39.3298014,14.3605484 38.9211475,15.2142087 38.7143135,16.3474084 L46.0349841,16.3474084 Z M52.2876391,19.9300243 L38.5739171,19.9300243 C38.5864525,21.3214531 38.9449648,22.3932294 39.6469469,23.1491137 C40.3539432,23.9037445 41.3467464,24.2823134 42.6328779,24.2823134 C43.601864,24.2823134 44.412904,24.1005502 45.0772799,23.7407843 C45.7353882,23.3747508 46.2418181,22.8382359 46.5890486,22.1249719 L51.3725552,24.0516621 C50.7996877,25.4343162 49.7893349,26.5010783 48.3389897,27.2506949 C46.8811233,28.0003115 45.1010972,28.3788804 42.9926438,28.3788804 C39.8487667,28.3788804 37.3241382,27.506417 35.4287865,25.7639971 C33.5271671,24.0140559 32.5769842,21.7163181 32.5769842,18.858248 C32.5769842,16.049066 33.5271671,13.713722 35.4225188,11.8547229 C37.3241382,9.99572387 39.7259199,9.06935819 42.6266102,9.06935819 C45.6137948,9.06935819 47.9729562,10.0082593 49.6978265,11.8910756 C51.4226968,13.7751454 52.2876391,16.3536761 52.2876391,19.6254142 L52.2876391,19.9300243 Z M53.158849,26.1851863 L54.4813332,21.3214531 C55.4139665,22.1312396 56.4330941,22.7517417 57.5462372,23.191734 C58.6631409,23.6242052 59.7838052,23.8448281 60.9119907,23.8448281 C61.7104954,23.8448281 62.3197156,23.7157135 62.7346371,23.4599915 C63.1545729,23.2042694 63.3614069,22.8319682 63.3614069,22.3443413 C63.3614069,21.5470902 62.5202819,20.9491519 60.8380319,20.5530334 C60.2902351,20.4251724 59.8452286,20.3085932 59.5155477,20.2170848 C57.6076606,19.6931053 56.2300208,19.0049122 55.3650785,18.1512518 C54.5051504,17.3038591 54.0726793,16.1944766 54.0726793,14.8419075 C54.0726793,13.0869522 54.7307875,11.6905093 56.0482575,10.6425502 C57.364474,9.59333769 59.1445001,9.06935819 61.3933499,9.06935819 C62.5503668,9.06935819 63.7274404,9.20348691 64.9220636,9.47174436 C66.1154331,9.74125535 67.3426483,10.1549234 68.5911736,10.7152555 L67.2686895,15.1038973 C66.4275645,14.5310297 65.5688899,14.0910374 64.6951729,13.7939485 C63.8252165,13.4943526 62.9602743,13.3476885 62.0878108,13.3476885 C61.3620114,13.3476885 60.8142147,13.4642676 60.443167,13.6899047 C60.0708657,13.9155418 59.8865954,14.2439692 59.8865954,14.6701726 C59.8865954,15.3107313 60.7214527,15.8535139 62.3911673,16.2985204 C62.776004,16.4013106 63.0630645,16.4815372 63.252349,16.5304252 C65.4523108,17.1584485 66.9828825,17.9005439 67.8465712,18.7479366 C68.7077528,19.6028505 69.1389704,20.7548533 69.1389704,22.2039449 C69.1389704,24.0453944 68.4332277,25.53836 67.0129674,26.6715597 C65.5989749,27.8122806 63.7211727,28.3788804 61.3933499,28.3788804 C59.8076224,28.3788804 58.3384742,28.1958637 56.9796374,27.8360978 C55.6208006,27.4700643 54.3472044,26.9222676 53.158849,26.1851863 Z M71.4367083,27.683166 L71.4367083,0 L77.6906168,0 L77.6906168,9.71618456 C77.6906168,10.3554897 77.6718137,10.953428 77.6367146,11.5012248 C77.5991084,12.0502751 77.5502203,12.5441696 77.4775151,12.9829085 C78.2747662,11.6353535 79.2136672,10.6488179 80.2929647,10.014527 C81.3785299,9.38650368 82.6709291,9.06935819 84.1638947,9.06935819 C85.333447,9.06935819 86.3688706,9.25864265 87.2776868,9.63094388 C88.1865029,10.0082593 88.9285983,10.5447742 89.4977052,11.2517704 C89.9778108,11.8547229 90.3137594,12.5980718 90.5143257,13.4642676 C90.714892,14.3354776 90.8189358,15.6341445 90.8189358,17.3590148 L90.8189358,27.683166 L84.4559694,27.683166 L84.4559694,18.0233907 C84.4559694,16.5793133 84.2190504,15.5363684 83.7489731,14.8782602 C83.2801493,14.2264196 82.5292792,13.8967387 81.4938556,13.8967387 C80.1713714,13.8967387 79.2086531,14.3843656 78.5981794,15.3596193 C77.9952269,16.3348731 77.6906168,17.919347 77.6906168,20.1142946 L77.6906168,27.683166 L71.4367083,27.683166 Z" id="Fill-1"></path>
                                <path d="M43.0803915,6.54347612 C44.9080521,3.09624253 47.4778081,1.77877253 51.9454228,1.85899906 C50.0663671,6.71019687 47.4376948,8.51529373 42.2342524,8.42127827 C41.650103,6.61994203 40.6121723,5.06053891 38.8797807,3.87092993 C39.3097448,3.2190894 39.7397088,2.56724887 40.1709264,1.9141548 C41.7228083,3.37076768 42.5902576,4.92891726 43.0803915,6.54347612" id="Fill-2"></path>
                            </g>
                        </g>
                    </g>
                </g>
            </g>
        </g>
    </g>
</svg>