<?xml version="1.0" encoding="UTF-8"?>
<svg width="461px" height="313px" viewBox="0 0 461 313" version="1.1" xmlns="http://www.w3.org/2000/svg" xmlns:xlink="http://www.w3.org/1999/xlink">
    <!-- Generator: sketchtool 52.3 (67297) - http://www.bohemiancoding.com/sketch -->
    <title>8D992B19-D859-4534-BB66-5E4C40E0F8C0@2x</title>
    <desc>Created with sketchtool.</desc>
    <g id="Page-1" stroke="none" stroke-width="1" fill="none" fill-rule="evenodd">
        <g id="Home" transform="translate(-1118.000000, -5230.000000)">
            <rect fill="#FFFFFF" x="0" y="0" width="1920" height="6279"></rect>
            <g id="Logos" transform="translate(184.000000, 5194.000000)">
                <g id="Group-11" style="mix-blend-mode: multiply;" transform="translate(0.000000, 136.000000)">
                    <g id="Atoms-/-Logo_press-/-Card" transform="translate(1034.970088, 0.000000)">
                        <polygon id="Rectangle-5" points="0 0 258.371472 0 258.371472 112.840003 0 112.840003"></polygon>
                        <g id="Atoms-/-Logo-/-Press-/-#4" transform="translate(48.271884, 20.020001)" fill="#484848" fill-rule="evenodd" stroke-width="1">
                            <g id="Logo-#4" transform="translate(32.760001, 12.740000)">
                                <polyline id="Fill-2" points="16.1529429 10.1989937 14.2614601 16.6855192 23.9904111 16.6855192 0.0276016583 48.2158888 6.33381134 26.1445169 0.387735426 26.1445169 6.15345034 0.0191401663 36.6028305 0.0191401663 28.9456328 10.1989937 16.1529429 10.1989937"></polyline>
                                <path d="M41.799544,14.7414574 C42.907728,14.7414574 43.7056421,14.9187868 44.3706159,15.2290566 L43.9938306,17.6450161 C43.6170001,17.4676868 43.0850573,17.3347011 42.4201288,17.3347011 C41.2897731,17.3347011 40.3144843,17.7336582 40.1150284,19.0192167 L39.9598709,19.9279448 L43.1959164,19.9279448 L42.7969141,22.5211884 L39.538742,22.5211884 L38.2753552,30.5668908 L35.1945125,30.5668908 L36.480071,22.5211884 L34.6403978,22.5211884 L35.0615268,19.9279448 L36.8790281,19.9279448 L37.078484,18.7089017 C37.5660831,15.5837153 39.8047134,14.7414574 41.799544,14.7414574" id="Fill-3"></path>
                                <path d="M55.2089726,19.9279448 L53.524457,30.5668908 L50.8203994,30.5668908 L51.0420272,29.1926902 C50.1332991,30.234404 48.8477858,30.8772059 47.3627714,30.8772059 C44.6143702,30.8772059 43.2179978,28.8824204 43.6169548,26.3999907 L44.636542,19.9279448 L47.6952582,19.9279448 L46.7200147,26.2004895 C46.4761699,27.6411603 47.185442,28.2174467 48.2936712,28.2174467 C49.4905425,28.2174467 50.4879578,27.5082199 51.0642442,26.7989477 L52.1502564,19.9279448 L55.2089726,19.9279448" id="Fill-4"></path>
                                <path d="M60.6171782,35.7533782 C58.7553784,35.7533782 57.1817219,35.3101227 56.0513209,34.6673208 L56.4724498,32.0740771 C57.5363806,32.8055211 58.8440657,33.1601345 60.3291254,33.1601345 C62.2352236,33.1601345 63.9197392,32.3843921 64.2522261,30.3230913 L64.4073383,29.3478478 C63.8310519,30.0571199 62.678479,30.8772059 60.7945075,30.8772059 C57.4255215,30.8772059 55.8962086,28.0623345 56.3838078,25.0479166 C56.8271085,22.2552171 59.0435216,19.6176297 62.3016938,19.6176297 C64.0970233,19.6176297 65.271768,20.3934173 65.9366964,21.6124604 L66.2247944,19.9279448 L68.9731956,19.9279448 L67.3330688,30.3674349 C66.712484,34.2683637 63.7424098,35.7533782 60.6171782,35.7533782 Z M61.6589371,28.2839622 C63.0996532,28.2839622 64.2522261,27.4195326 64.8506391,26.4664609 L65.271768,23.8732172 C65.0057966,22.9644892 64.1413669,22.2108734 62.900152,22.2108734 C61.0604789,22.2108734 59.7306672,23.5186038 59.442524,25.3361051 C59.1986792,26.8875898 59.9744668,28.2839622 61.6589371,28.2839622 Z" id="Fill-5"></path>
                                <path d="M69.9263125,30.5668908 L71.6108281,19.9279448 L74.6917162,19.9279448 L73.0072006,30.5668908 L69.9263125,30.5668908 Z M73.5613152,18.1769589 C72.541728,18.1769589 71.721642,17.5342023 71.9211432,16.2264719 C72.0984725,15.1182427 72.9406851,14.6528154 73.8494131,14.6528154 C74.8911721,14.6528154 75.6891315,15.3177439 75.4895851,16.6033024 C75.312301,17.7114864 74.4700432,18.1769589 73.5613152,18.1769589 Z" id="Fill-6"></path>
                                <path d="M80.3434498,30.8772059 C76.9744186,30.8772059 75.4450605,28.0623345 75.9326596,25.0479166 C76.3759603,22.2552171 78.5480751,19.6176297 81.8505909,19.6176297 C83.8010779,19.6176297 84.9536055,20.6593887 85.5077201,21.7011024 L85.7959085,19.9279448 L88.4999208,19.9279448 L86.8154505,30.5668908 L84.1113929,30.5668908 L84.3551925,28.9932343 C83.5351065,30.034948 82.2274214,30.8772059 80.3434498,30.8772059 Z M81.2078342,28.2839622 C82.648505,28.2839622 83.8010779,27.3751889 84.3994909,26.4221172 L84.820665,23.9397327 C84.5768202,22.986661 83.7124358,22.2108734 82.4490491,22.2108734 C80.6094212,22.2108734 79.279519,23.5629474 78.9913758,25.3139333 C78.7475762,26.8875898 79.5233638,28.2839622 81.2078342,28.2839622 Z" id="Fill-7"></path>
                                <path d="M95.4818282,16.0934862 L94.8834152,19.9279448 L98.2524012,19.9279448 L97.8312723,22.5211884 L94.4622863,22.5211884 L93.775186,26.7767759 C93.5978566,27.9071769 94.0411121,28.2839622 95.1715584,28.2839622 C95.9251289,28.2839622 96.5900574,28.1509765 97.232814,27.8850051 L96.8338569,30.4117786 C96.1689285,30.6999218 95.1271695,30.8772059 94.0633292,30.8772059 C92.0463267,30.8772059 90.2510424,29.8354469 90.6721261,27.1979048 L91.4036153,22.5211884 L89.6082858,22.5211884 L90.0293694,19.9279448 L91.8025271,19.9279448 L92.3122981,16.847102 L95.4818282,16.0934862" id="Fill-8"></path>
                            </g>
                        </g>
                    </g>
                </g>
            </g>
        </g>
    </g>
</svg>