<?xml version="1.0" encoding="UTF-8"?>
<svg width="49px" height="49px" viewBox="0 0 49 49" version="1.1" xmlns="http://www.w3.org/2000/svg" xmlns:xlink="http://www.w3.org/1999/xlink">
    <!-- Generator: sketchtool 52.3 (67297) - http://www.bohemiancoding.com/sketch -->
    <title>CB44F106-DDFD-4464-BDD4-44628B4ADEFB@2x</title>
    <desc>Created with sketchtool.</desc>
    <g id="Page-1" stroke="none" stroke-width="1" fill="none" fill-rule="evenodd">
        <g id="Home" transform="translate(-1781.000000, -19.000000)" fill-rule="nonzero">
            <g id="Group-2" transform="translate(1781.000000, 19.000000)">
                <circle id="Oval" fill="#FAFAFA" cx="24.55" cy="24.2" r="24.2"></circle>
                <path d="M35.2684898,32.4672408 L29.7415061,26.9402571 C31.1115224,25.2699633 31.9372857,23.1304857 31.9372857,20.7986429 C31.9372857,15.449949 27.5973367,11.11 22.2486429,11.11 C16.8952571,11.11 12.56,15.449949 12.56,20.7986429 C12.56,26.1473367 16.8952571,30.4872857 22.2486429,30.4872857 C24.5804857,30.4872857 26.7152714,29.6662143 28.3855653,28.296198 L33.912549,33.8184898 C34.2878959,34.1938367 34.8931429,34.1938367 35.2684898,33.8184898 C35.6438367,33.4478347 35.6438367,32.8378959 35.2684898,32.4672408 Z M22.2486429,28.5589408 C17.9649959,28.5589408 14.4836531,25.077598 14.4836531,20.7986429 C14.4836531,16.5196878 17.9649959,13.0336531 22.2486429,13.0336531 C26.527598,13.0336531 30.0136327,16.5196878 30.0136327,20.7986429 C30.0136327,25.077598 26.527598,28.5589408 22.2486429,28.5589408 Z" id="Shape" fill="#0E3A7C"></path>
            </g>
        </g>
    </g>
</svg>