<?xml version="1.0" encoding="UTF-8"?>
<svg width="38px" height="38px" viewBox="0 0 38 38" version="1.1" xmlns="http://www.w3.org/2000/svg" xmlns:xlink="http://www.w3.org/1999/xlink">
    <!-- Generator: sketchtool 52.3 (67297) - http://www.bohemiancoding.com/sketch -->
    <title>9564C392-5014-46EE-A3A6-51347F13A387@2x</title>
    <desc>Created with sketchtool.</desc>
    <g id="Page-1" stroke="none" stroke-width="1" fill="none" fill-rule="evenodd">
        <g id="Home" transform="translate(-1671.000000, -6030.000000)" fill="#FFFFFF" fill-rule="nonzero">
            <g id="footer" transform="translate(0.000000, 5741.000000)">
                <g id="Group-7">
                    <g id="social-icons" transform="translate(1462.000000, 289.000000)">
                        <g id="Group-6" transform="translate(209.000000, 0.000000)">
                            <path d="M0,0 L38,0 L38,38 L0,38 L0,0 Z M31.1996989,11.1386161 C30.4574882,9.80271504 29.6520013,9.55699232 28.0119549,9.46354847 C26.3736186,9.35106975 22.2538357,9.30434783 18.6847253,9.30434783 C15.1087742,9.30434783 10.9872811,9.35106975 9.35065497,9.46181802 C7.71402887,9.55699232 6.90683187,9.8009846 6.15778043,11.1386161 C5.39333752,12.4727866 5,14.7708133 5,18.816586 C5,18.8200469 5,18.8217773 5,18.8217773 C5,18.8252382 5,18.8269687 5,18.8269687 L5,18.8304296 C5,22.8588979 5.39333752,25.1742289 6.15778043,26.494556 C6.90683187,27.830457 7.7123187,28.0727188 9.34894481,28.1851975 C10.9872811,28.2821023 15.1087742,28.3392069 18.6847253,28.3392069 C22.2538357,28.3392069 26.3736186,28.2821023 28.0136651,28.186928 C29.6537115,28.0744493 30.4591983,27.8321874 31.2014091,26.4962864 C31.9726927,25.1759594 32.3626099,22.8606283 32.3626099,18.83216 C32.3626099,18.83216 32.3626099,18.8269687 32.3626099,18.8235078 C32.3626099,18.8235078 32.3626099,18.8200469 32.3626099,18.8183165 C32.3626099,14.7708133 31.9726927,12.4727866 31.1996989,11.1386161 Z" id="Combined-Shape"></path>
                            <polygon id="Shape" points="15.1122689 23.8508736 15.1122689 13.4682232 23.6630844 18.6595484"></polygon>
                        </g>
                    </g>
                </g>
            </g>
        </g>
    </g>
</svg>