<?xml version="1.0" encoding="UTF-8"?>
<svg width="40px" height="17px" viewBox="0 0 40 17" version="1.1" xmlns="http://www.w3.org/2000/svg" xmlns:xlink="http://www.w3.org/1999/xlink">
    <!-- Generator: sketchtool 52.3 (67297) - http://www.bohemiancoding.com/sketch -->
    <title>C09A9838-9269-49A1-A0EF-189175266613@2x</title>
    <desc>Created with sketchtool.</desc>
    <g id="Page-1" stroke="none" stroke-width="1" fill="none" fill-rule="evenodd">
        <g id="Home" transform="translate(-1669.000000, -6215.000000)" fill="#A4A4A4">
            <g id="footer" transform="translate(0.000000, 5741.000000)">
                <g id="Page-1" transform="translate(1669.000000, 474.000000)">
                    <path d="M10.1013739,2.47274918 C10.1013739,2.04883858 10.0262301,1.78121444 9.87494495,1.66599 C9.71954399,1.5504521 9.38442171,1.49095918 8.85610835,1.49095918 L6.61482997,1.49095918 C6.1903459,1.49095918 5.89750365,1.43911445 5.73237455,1.3384968 C5.5676196,1.23831798 5.48243593,1.05971383 5.48243593,0.803248536 C5.48243593,0.542896459 5.5676196,0.357082936 5.73723862,0.249130546 C5.90716944,0.141303536 6.19976225,0.0855720169 6.61482997,0.0855720169 L18.2591757,0.0855720169 C18.6746176,0.0855720169 18.9668362,0.141303536 19.1371412,0.249130546 C19.3071344,0.357082936 19.3916321,0.542896459 19.3916321,0.803248536 C19.3916321,1.05971383 19.3071344,1.23831798 19.1371412,1.3384968 C18.9668362,1.43911445 18.6746176,1.49095918 18.2591757,1.49095918 L16.0182715,1.49095918 C15.4899581,1.49095918 15.1548358,1.5542762 14.9990607,1.67683539 C14.8480873,1.79964534 14.7726318,2.06382151 14.7726318,2.47274918 L14.8006314,13.8773989 C14.8006314,13.8920057 14.7961415,13.9108127 14.7868498,13.9330677 C14.7774959,13.9553227 14.7726318,13.9699922 14.7726318,13.9852886 C14.7726318,14.8734823 14.5980863,15.4915442 14.2536724,15.8444896 C13.9092585,16.1973723 13.3241352,16.3727792 12.5078437,16.3727792 C11.6585638,16.3727792 11.0451291,16.1792548 10.6677268,15.7964062 C10.2903868,15.4094201 10.1013739,14.7697301 10.1013739,13.8773989 L10.1013739,2.47274918 Z M0,13.8773989 L0,2.47274918 C0,1.58041798 0.18870116,0.944552072 0.566041119,0.565151452 C0.943381078,0.18963762 1.56616974,0 2.42966774,0 C3.2979051,0 3.91589204,0.185813522 4.28387801,0.561390045 C4.65186398,0.93339323 4.83601286,1.57302055 4.83601286,2.47274918 L4.83601286,13.8773989 C4.83601286,14.7697301 4.64737406,15.4094201 4.27452402,15.7964062 C3.90204813,16.1792548 3.28855111,16.3727792 2.42966774,16.3727792 C1.55681575,16.3727792 0.934027088,16.1827028 0.561551203,15.8075651 C0.18870116,15.4275376 0,14.7843996 0,13.8773989 Z" id="Fill-1"></path>
                    <path d="M19.400293,3.07653885 C19.2440355,2.72052604 19.1362117,2.44960592 19.0847899,2.25989926 C19.0280765,2.07438468 19,1.90764054 19,1.76285782 C19,1.24704594 19.220877,0.82396006 19.664312,0.493600191 C20.1025176,0.16330289 20.6582587,0 21.3177149,0 C21.8596356,0 22.3020123,0.122258179 22.6365028,0.370966603 C22.9711178,0.61585837 23.2863096,1.07266848 23.58351,1.74058356 L26.7147597,8.84019234 C26.8239531,9.1072958 26.9456596,9.29662704 27.0783228,9.41156475 C27.2138497,9.52306121 27.3741536,9.5786843 27.5677012,9.5786843 C27.8262419,9.5786843 28.0336098,9.52306121 28.1980848,9.41544397 C28.358451,9.30770161 28.4386341,9.15941508 28.4386341,8.97008383 C28.4386341,8.91070665 28.4248137,8.83255902 28.3972352,8.7363292 C28.3681626,8.63972396 28.3267015,8.52478626 28.2741591,8.39489477 L25.9281186,3.12096224 C25.7678147,2.78716112 25.6599908,2.516241 25.5935659,2.31195597 C25.532806,2.10429226 25.4996246,1.92228149 25.4996246,1.76285782 C25.4996246,1.24704594 25.7166419,0.82396006 26.1548476,0.493600191 C26.5931154,0.16330289 27.1433159,0 27.8165303,0 C28.3488016,0 28.7870072,0.122258179 29.1271006,0.370966603 C29.4699954,0.61585837 29.8141976,1.12441235 30.1625707,1.89274932 L31.4966731,4.83245161 C31.833965,5.58890063 32.2209979,6.25374986 32.6689151,6.80885455 L32.6717166,6.80747805 C33.0504697,7.26597751 33.6227703,7.55773282 34.2614959,7.55773282 C35.1628088,7.55773282 35.9287192,6.97835169 36.2121615,6.17003367 C36.3089041,5.96900218 36.3573377,5.74525845 36.3573377,5.49999128 C36.3573377,5.34063018 36.3337435,5.17695188 36.2812011,5.00645365 C36.2688126,4.95921469 36.2508212,4.90672001 36.2301529,4.84834392 C36.2010803,4.75492966 36.1650975,4.6642684 36.1222668,4.57679812 L36.101474,4.52743184 C36.0725259,4.45103612 36.0379127,4.37701799 36.0005603,4.305878 L35.9853703,4.27177835 L35.4199799,2.97993362 C35.292795,2.69787636 35.2029626,2.46412173 35.1517275,2.28248637 C35.0992475,2.10041303 35.0757777,1.93341862 35.0757777,1.78125286 C35.0757777,1.24704594 35.2734963,0.816264177 35.6743495,0.489783533 C36.0738954,0.16330289 36.6019335,0 37.2558491,0 C37.9636144,0 38.5276975,0.170560796 38.947974,0.512057797 C39.3668186,0.849613004 39.5742488,1.31368103 39.5742488,1.89274932 C39.5742488,2.08208056 39.5451762,2.27866971 39.4885251,2.49021265 C39.4372901,2.70175559 39.3198792,2.99870406 39.1456303,3.38112064 L33.6394544,15.4725421 C33.5024957,15.7907638 33.3560121,16.0171979 33.2011242,16.1547227 C33.0408203,16.2923101 32.8569221,16.3631998 32.6454454,16.3631998 C32.4339064,16.3631998 32.2445299,16.288118 32.0758839,16.1402069 C31.9058061,15.9914824 31.7592603,15.7691778 31.6417871,15.4725421 L30.1059196,11.8948323 C29.9703927,11.5682891 29.8280179,11.3376629 29.682904,11.2042676 C29.5321871,11.0709348 29.3621716,11.0041746 29.1685618,11.0041746 C28.9860331,11.0041746 28.8257292,11.0667428 28.6930038,11.193193 C28.5617102,11.3195807 28.4206427,11.5530225 28.2741591,11.8948323 L26.7438323,15.4725421 C26.6110446,15.7768111 26.4658684,15.9991157 26.3055644,16.1436482 C26.1451982,16.288118 25.9613623,16.3631998 25.7636437,16.3631998 C25.5424554,16.3631998 25.3489701,16.288118 25.1802618,16.1402069 C25.014355,15.9914824 24.8691788,15.7691778 24.741994,15.4725421 L19.400293,3.07653885 Z" id="Fill-4"></path>
                    <path d="M34.5158179,3 C35.3521831,3 36.030303,3.67977705 36.030303,4.51788617 C36.030303,5.35587918 35.3521831,6.03571429 34.5158179,6.03571429 C33.6793947,6.03571429 33,5.35587918 33,4.51788617 C33,3.67977705 33.6793947,3 34.5158179,3" id="Fill-7"></path>
                </g>
            </g>
        </g>
    </g>
</svg>