<svg xmlns="http://www.w3.org/2000/svg" width="205" height="168" viewBox="0 0 205 168" fill="none">
  <g clip-path="url(#clip0_18_1921)">
  <path d="M7.51404 84.1748H1.30859C3.77938 115.463 19.163 146.117 40.2573 159.917V116.979C40.2573 98.8632 25.5999 84.1748 7.51404 84.1748Z" fill="#E5E6F2"/>
  <path d="M40.2569 45.7382V4.41943C17.3576 12.905 2.44387 34.8342 1.06607 70.4245C0.937904 73.1211 0.927224 75.8283 1.00555 78.5392H7.51361C25.5995 78.5427 40.2569 63.8543 40.2569 45.7382Z" fill="#E5E6F2"/>
  <path d="M78.6212 78.5428H90.644H126.225C126.602 78.5428 126.962 78.6213 127.293 78.7568C127.41 75.9747 127.421 73.1925 127.289 70.4282C126.88 59.9201 125.292 50.6034 122.668 42.471C113.597 14.3497 92.1464 0.388916 64.1774 0.388916C57.7014 0.388916 51.5814 1.14866 45.8779 2.65032V45.7418C45.8779 63.8544 60.5389 78.5428 78.6212 78.5428Z" fill="#E5E6F2"/>
  <path d="M78.6212 84.1749C60.5353 84.1749 45.8779 98.8633 45.8779 116.98V163.121C51.674 165.946 57.8118 167.536 64.1774 167.536C92.2425 167.536 122.835 126.346 126.919 84.0786C126.695 84.1357 126.463 84.1749 126.225 84.1749H78.6212Z" fill="#E5E6F2"/>
  <path d="M141.441 167.536C172.529 167.536 206.735 116.99 204.553 70.4281C202.723 23.5914 177.495 0.385254 141.441 0.385254C105.387 0.385254 80.1416 23.5878 78.3294 70.4281C76.1256 116.99 105.209 167.536 141.441 167.536Z" stroke="#FFC41E" stroke-width="1.864" stroke-miterlimit="10"/>
  <path d="M141.323 154.589C165.269 154.589 191.501 117.29 192.12 81.2358C143.26 102.634 139.44 65.3347 139.44 65.3347L149.839 59.9487L139.625 56.3569C139.625 56.3569 137.856 39.3464 117.125 42.9704C95.9841 46.6657 90.5156 68.4771 90.5156 82.2809C91.2348 118.01 113.685 154.589 141.323 154.589Z" stroke="#FFC41E" stroke-width="1.864" stroke-miterlimit="10"/>
  <path d="M126.446 55.7895C126.446 58.2292 124.47 60.2088 122.035 60.2088C119.6 60.2088 117.624 58.2292 117.624 55.7895C117.624 53.3462 119.6 51.3701 122.035 51.3701C124.47 51.3701 126.446 53.3497 126.446 55.7895Z" stroke="#FFC41E" stroke-width="1.864" stroke-miterlimit="10"/>
  </g>
  <defs>
  <clipPath id="clip0_18_1921">
  <rect width="204" height="168" fill="white" transform="translate(0.958984)"/>
  </clipPath>
  </defs>
</svg>