<?xml version="1.0" encoding="UTF-8"?>
<svg width="460px" height="313px" viewBox="0 0 460 313" version="1.1" xmlns="http://www.w3.org/2000/svg" xmlns:xlink="http://www.w3.org/1999/xlink">
    <!-- Generator: sketchtool 52.3 (67297) - http://www.bohemiancoding.com/sketch -->
    <title>A0104DC5-4975-485F-A309-F1AF951976D5@2x</title>
    <desc>Created with sketchtool.</desc>
    <g id="Page-1" stroke="none" stroke-width="1" fill="none" fill-rule="evenodd">
        <g id="Home" transform="translate(-342.000000, -5230.000000)">
            <rect fill="#FFFFFF" x="0" y="0" width="1920" height="6279"></rect>
            <g id="Logos" transform="translate(184.000000, 5194.000000)">
                <g id="Group-11" style="mix-blend-mode: multiply;" transform="translate(0.000000, 136.000000)">
                    <g id="Atoms-/-Logo_press-/-Card" transform="translate(258.514956, 0.000000)">
                        <polygon id="Rectangle-5" points="0 0 258.371472 0 258.371472 112.840003 0 112.840003"></polygon>
                        <g id="Atoms-/-Logo-/-Press-/-#1" transform="translate(48.271884, 20.020001)" fill="#D9D9D9" fill-rule="evenodd" stroke-width="1">
                            <g id="Logo-#8" transform="translate(21.840001, 13.650000)">
                                <path d="M18.0462815,45.1545345 L2.44000929,36.1442386 C0.93216084,35.273711 0.00333152552,33.6648433 0.00333152552,31.923788 L0.00333152552,13.9031963 C0.00333152552,12.1621041 0.93216084,10.5532734 2.44000929,9.68270875 L18.0462815,0.672449918 C19.5541299,-0.198114718 21.4118256,-0.198114718 22.919674,0.672449918 L38.5259462,9.68270875 C40.0337576,10.5532734 40.962624,12.1621041 40.962624,13.9031963 L40.962624,31.923788 C40.962624,33.6648433 40.0337576,35.273711 38.5259462,36.1442386 L22.919674,45.1545345 C21.4118256,46.0250991 19.5541299,46.0250991 18.0462815,45.1545345 Z M23.3865688,34.7074997 C21.1696237,32.2543864 20.7173506,29.9374215 24.0824134,26.896442 L24.0733073,26.896442 C25.162568,25.9139011 25.8513424,24.4958928 25.8513424,22.9134552 C25.8513424,21.3310546 25.162568,19.9130833 24.0733073,18.9305424 L24.0824134,18.9305424 C20.7173135,15.8894889 21.1696237,13.572598 23.3865688,11.1194476 L23.380535,11.1194476 C24.0098602,10.4249726 24.3965393,9.50650807 24.3965393,8.49546411 C24.3965393,6.3340814 22.644379,4.58192108 20.4829592,4.58192108 C18.3215765,4.58192108 16.5694162,6.3340814 16.5694162,8.49546411 C16.5694162,9.50650807 16.9560953,10.4249726 17.5853834,11.1194476 L17.5793867,11.1194476 C19.7963318,13.572598 20.2486049,15.8894889 16.883542,18.9305424 L16.8926482,18.9305424 C15.8033874,19.9130833 15.114613,21.3310546 15.114613,22.9134552 C15.114613,24.4958928 15.8033874,25.9139011 16.8926482,26.896442 L16.883542,26.896442 C20.2486049,29.9374215 19.7963318,32.2543864 17.5793867,34.7074997 L17.5853834,34.7074997 C16.9560953,35.4020117 16.5694162,36.3204393 16.5694162,37.3314832 C16.5694162,39.492903 18.3215765,41.2450633 20.4829592,41.2450633 C22.644379,41.2450633 24.3965393,39.492903 24.3965393,37.3314832 C24.3965393,36.3204393 24.0098602,35.4020117 23.380535,34.7074997 L23.3865688,34.7074997 Z M12.6497654,26.8190396 C11.4774386,25.5218175 10.8068765,24.2617606 10.9249976,22.9134922 C10.8068765,21.5652238 11.4774386,20.3051668 12.6497654,19.0079448 L12.6437686,19.0079448 C13.2730568,18.3134328 13.6597359,17.3950423 13.6597359,16.3839983 C13.6597359,14.2225786 11.9075755,12.4704183 9.74619282,12.4704183 C7.5847731,12.4704183 5.8326498,14.2225786 5.8326498,16.3839983 C5.8326498,17.3950423 6.21936587,18.3134328 6.84861701,19.0079448 L6.84262026,19.0079448 C8.01494708,20.3051668 8.68550913,21.5652238 8.56738804,22.9134922 C8.68550913,24.2617606 8.01494708,25.5218175 6.84262026,26.8190396 L6.84861701,26.8190396 C6.21936587,27.5135146 5.8326498,28.4319421 5.8326498,29.4429861 C5.8326498,31.6044058 7.5847731,33.3565661 9.74619282,33.3565661 C11.9075755,33.3565661 13.6597359,31.6044058 13.6597359,29.4429861 C13.6597359,28.4319421 13.2730568,27.5135146 12.6437686,26.8190396 L12.6497654,26.8190396 Z M34.1232982,26.8190396 C32.9510084,25.5218175 32.2804464,24.2617606 32.3985674,22.9134922 C32.2804464,21.5652238 32.9510084,20.3051668 34.1232982,19.0079448 L34.1173015,19.0079448 C34.7466266,18.3134328 35.1333057,17.3950423 35.1333057,16.3839983 C35.1333057,14.2225786 33.3811454,12.4704183 31.2197627,12.4704183 C29.0583429,12.4704183 27.3062196,14.2225786 27.3062196,16.3839983 C27.3062196,17.3950423 27.6929357,18.3134328 28.3221869,19.0079448 L28.3161901,19.0079448 C29.4885169,20.3051668 30.159079,21.5652238 30.0409579,22.9134922 C30.159079,24.2617606 29.4885169,25.5218175 28.3161901,26.8190396 L28.3221869,26.8190396 C27.6929357,27.5135146 27.3062196,28.4319421 27.3062196,29.4429861 C27.3062196,31.6044058 29.0583429,33.3565661 31.2197627,33.3565661 C33.3811454,33.3565661 35.1333057,31.6044058 35.1333057,29.4429861 C35.1333057,28.4319421 34.7466266,27.5135146 34.1173015,26.8190396 L34.1232982,26.8190396 Z" id="Combined-Shape"></path>
                                <path d="M54.0731393,14.4185093 L54.0731393,26.0561942 C54.0731393,26.8249252 54.3720882,27.2733486 54.9913078,27.2733486 C55.4183723,27.2733486 55.8027563,27.1238741 56.1871033,26.9317191 L56.3365778,29.3019515 C55.8240781,29.5154653 54.8631921,29.7930554 53.816871,29.7930554 C52.1513303,29.7930554 51.0836134,28.9816438 51.0836134,26.7822447 L51.0836134,14.4185093 L54.0731393,14.4185093" id="Fill-7"></path>
                                <path d="M68.8708503,26.1416294 C68.8708503,26.7822447 69.0416835,27.2733486 69.6395813,27.2733486 C70.0666458,27.2733486 70.4083123,27.1238741 70.7713005,26.9317191 L70.8994161,29.3019515 C70.3442359,29.5581828 69.4260675,29.7930554 68.4651075,29.7930554 C67.2052726,29.7930554 66.4152198,29.2805927 66.0948751,28.1702323 C65.3261811,29.0670419 64.087668,29.7716966 62.550206,29.7716966 C59.4326014,29.7716966 57.3185634,27.3801425 57.3185634,24.0276284 C57.3185634,20.6323967 59.4326014,18.2194468 62.550206,18.2194468 C64.0022329,18.2194468 65.1339891,18.6251525 65.8813614,19.3725248 L65.8813614,18.4116018 L68.8708503,18.4116018 L68.8708503,26.1416294 Z M65.8813614,21.8281922 C65.3688617,21.2943338 64.3866169,20.8245517 63.3830134,20.8245517 C61.5252437,20.8245517 60.3507699,22.1057823 60.3507699,24.0276284 C60.3507699,25.9067198 61.5465654,27.1879135 63.3830134,27.1879135 C64.3652581,27.1879135 65.2834266,26.7394901 65.8813614,26.1843099 L65.8813614,21.8281922 Z" id="Fill-8"></path>
                                <path d="M79.0565083,29.7930554 C77.5404051,29.7930554 76.4513664,29.3233103 75.7039572,28.575938 L75.7039572,29.5795416 L72.7144683,29.5795416 L72.7144683,14.4185093 L75.7039572,14.4185093 L75.7039572,19.351166 C76.4727252,18.6678701 77.6258032,18.2194468 79.0565083,18.2194468 C82.1954346,18.2194468 84.3094727,20.6110379 84.3094727,23.9849108 C84.3094727,27.3587837 82.1954346,29.7930554 79.0565083,29.7930554 Z M78.223701,20.8245517 C77.2200604,20.8245517 76.2804962,21.2943338 75.7039572,21.8708728 L75.7039572,26.1629881 C76.2164568,26.6754508 77.1773799,27.1879135 78.223701,27.1879135 C80.0601119,27.1879135 81.2559074,25.9067198 81.2559074,23.9849108 C81.2559074,22.0844236 80.0601119,20.8245517 78.223701,20.8245517 Z" id="Fill-9"></path>
                                <path d="M91.761614,18.1126899 C95.2636396,18.1126899 97.7833094,20.6323967 97.7833094,24.0276284 C97.7833094,27.3801425 95.2636396,29.8784905 91.761614,29.8784905 C88.30238,29.8784905 85.7826733,27.3801425 85.7826733,24.0276284 C85.7826733,20.6323967 88.30238,18.1126899 91.761614,18.1126899 Z M91.761614,27.1452329 C93.6407425,27.1452329 94.9006144,25.7786041 94.9006144,24.0276284 C94.9006144,22.233898 93.6407425,20.8459104 91.761614,20.8459104 C89.9252402,20.8459104 88.6654053,22.233898 88.6654053,24.0276284 C88.6654053,25.7786041 89.9252402,27.1452329 91.761614,27.1452329 Z" id="Fill-10"></path>
                                <path d="M100.836764,21.8708728 C100.836764,21.2089357 100.687289,20.7391535 100.068033,20.7391535 C99.6196092,20.7391535 99.1071466,20.9527043 98.9362763,21.0594612 L98.8081977,18.7105506 C98.9576721,18.5610762 100.068033,18.2194468 101.242469,18.2194468 C102.5237,18.2194468 103.356507,18.7319464 103.676778,19.9063832 C104.210636,18.8600251 105.022085,18.2194468 106.474075,18.2194468 C107.520433,18.2194468 108.331882,18.6037938 108.481356,18.8600251 L108.054255,21.5506021 C107.883458,21.3156925 107.029292,20.9740261 106.00433,20.9740261 C104.573662,20.9740261 104.018444,22.2125392 103.826252,23.5151287 L103.826252,29.5795416 L100.836764,29.5795416 L100.836764,21.8708728" id="Fill-11"></path>
                                <path d="M120.01221,28.3623873 C118.859132,29.3019515 117.214913,29.8784905 115.314426,29.8784905 C111.107783,29.8784905 109.228654,27.3160661 109.228654,24.0276284 C109.228654,20.696436 111.534847,18.1126899 115.122234,18.1126899 C118.517466,18.1126899 120.119004,20.1839733 120.119004,22.7677194 C120.119004,23.4510523 120.01221,24.5187322 119.884094,24.9457968 L112.303578,24.9457968 C112.581168,26.5046546 113.584772,27.3801425 115.399824,27.3801425 C116.809207,27.3801425 118.11176,26.8036035 118.880491,26.2270645 L120.01221,28.3623873 Z M117.257594,22.2552568 C117.257594,21.3584101 116.574298,20.5896791 115.058195,20.5896791 C113.456656,20.5896791 112.602527,21.5506021 112.388976,22.6396038 L117.236272,22.6396038 C117.257594,22.5328469 117.257594,22.3620507 117.257594,22.2552568 Z" id="Fill-12"></path>
                            </g>
                        </g>
                    </g>
                </g>
            </g>
        </g>
    </g>
</svg>