<svg width="250" height="51" viewBox="0 0 250 51" fill="none" xmlns="http://www.w3.org/2000/svg">
<g clip-path="url(#clip0_6_2405)">
<path d="M5.5857 15.3379H12.3176V33.8326C12.3176 37.1822 11.5459 39.6496 10.0023 41.2347C8.45875 42.8198 6.04093 43.6108 2.74581 43.6108C1.52484 43.6108 0.514898 43.4921 -0.290039 43.2579V37.6021C0.306881 37.7329 0.888726 37.7998 1.46153 37.7998C2.96589 37.7998 4.03009 37.4134 4.65113 36.6407C5.27518 35.8679 5.5857 34.4349 5.5857 32.3418V15.3379Z" fill="white"/>
<path d="M24.6117 22.7227C30.605 22.7227 33.5987 25.4182 33.5987 30.8124V37.6851C33.5987 40.0673 33.7946 41.9384 34.1835 43.3014H28.347C28.1661 42.5681 28.0756 41.7041 28.0756 40.7092H27.9973C26.4929 42.7781 24.3524 43.8125 21.5789 43.8125C19.4776 43.8125 17.8165 43.2375 16.5985 42.0844C15.3806 40.9313 14.7686 39.468 14.7686 37.6851C14.7686 35.9327 15.3715 34.5302 16.5774 33.4836C17.7833 32.437 19.8002 31.6916 22.628 31.2444C24.262 30.9827 25.8447 30.8002 27.3762 30.6937V29.9879C27.3762 27.8947 26.4537 26.8481 24.6147 26.8481C22.7998 26.8481 21.8653 27.7791 21.814 29.635H15.5886C15.6911 27.6209 16.496 25.9628 18.0004 24.6667C19.4987 23.3707 21.7055 22.7227 24.6117 22.7227ZM27.3732 34.9713V34.2655C26.1281 34.3172 24.9614 34.448 23.8701 34.6579C22.9114 34.8405 22.215 35.1356 21.7899 35.5402C21.3618 35.9479 21.1478 36.5016 21.1478 37.2075C21.1478 37.9133 21.3678 38.47 21.808 38.8777C22.2481 39.2824 22.8722 39.4862 23.6771 39.4862C25.0519 39.4862 26.0105 39.0937 26.5562 38.3088C27.1019 37.5239 27.3732 36.4134 27.3732 34.9713Z" fill="white"/>
<path d="M60.9903 22.8408C63.1428 22.8408 64.8341 23.5406 66.0671 24.9431C67.2971 26.3426 67.9152 28.378 67.9152 31.0492V43.2978H61.4576V31.755C61.4576 29.1903 60.5893 27.9064 58.8498 27.9064C56.7998 27.9064 55.7748 29.6618 55.7748 33.1667V43.2978H49.3172V31.4782C49.3172 29.096 48.4489 27.9034 46.7094 27.9034C44.6353 27.9034 43.5982 29.6588 43.5982 33.1636V43.2978H37.1406V23.3519H43.1701V25.6307H43.2485C44.6232 23.7718 46.4773 22.8439 48.8137 22.8439C51.5903 22.8439 53.5348 23.9969 54.6503 26.3C56.2029 23.9908 58.3162 22.8408 60.9903 22.8408Z" fill="white"/>
<path d="M80.6773 39.5653C81.5848 39.5653 82.3354 39.3432 82.9323 38.899C83.5293 38.4548 83.879 37.8768 83.9815 37.1709H90.5566C90.1406 39.1089 89.0463 40.7184 87.2706 42.0023C85.4949 43.2861 83.3213 43.925 80.7527 43.925C77.5088 43.925 74.9885 42.9302 73.1857 40.9405C71.3829 38.9507 70.4814 36.3586 70.4814 33.1672C70.4814 30.1309 71.3889 27.63 73.2038 25.6677C75.0186 23.7053 77.5088 22.7227 80.6743 22.7227C82.9836 22.7227 84.9552 23.2916 86.5892 24.4325C88.2232 25.5703 89.3899 27.1341 90.0924 29.1238C90.6109 30.5385 90.8702 32.3822 90.8702 34.661H76.8245C76.9541 37.9315 78.2384 39.5653 80.6773 39.5653ZM80.6773 27.0033C78.5489 27.0033 77.3038 28.3267 76.942 30.9706H84.3734C84.2438 29.635 83.8398 28.6401 83.1675 27.986C82.4922 27.3288 81.6631 27.0033 80.6773 27.0033Z" fill="white"/>
<path d="M102.154 22.7227C104.93 22.7227 107.083 23.2855 108.611 24.4112C110.143 25.5369 110.906 27.198 110.906 29.3977H104.758C104.758 27.697 103.875 26.8451 102.112 26.8451C100.58 26.8451 99.8173 27.3684 99.8173 28.415C99.8173 28.99 100.083 29.422 100.613 29.711C101.144 30 102.229 30.353 103.863 30.7698C104.849 31.0314 105.609 31.2474 106.139 31.4178C106.67 31.5882 107.339 31.8559 108.144 32.221C108.949 32.5891 109.564 32.9877 109.992 33.4197C110.42 33.8517 110.797 34.4206 111.12 35.1265C111.445 35.8323 111.605 36.6324 111.605 37.5208C111.605 39.4588 110.788 41.0104 109.154 42.1726C107.52 43.3379 105.277 43.919 102.422 43.919C96.1182 43.919 92.9678 41.5489 92.9678 36.8119H99.4646C99.4646 38.6952 100.478 39.6383 102.5 39.6383C103.305 39.6383 103.92 39.4892 104.348 39.188C104.777 38.8869 104.991 38.4883 104.991 37.9893C104.991 37.3079 104.686 36.8059 104.077 36.4773C103.468 36.1517 102.253 35.7502 100.438 35.2786C99.5309 35.0443 98.8435 34.8587 98.3762 34.7279C97.9089 34.5971 97.3 34.3537 96.5463 34.0008C95.7926 33.6479 95.2349 33.2736 94.8731 32.8812C94.5083 32.4887 94.1797 31.9533 93.8812 31.2718C93.5828 30.5903 93.4351 29.8175 93.4351 28.9565C93.4351 27.0976 94.2008 25.5947 95.7293 24.4416C97.2638 23.2977 99.4043 22.7227 102.154 22.7227Z" fill="white"/>
<path d="M144.99 23.3491L140.595 43.298H131.762L130.167 35.7986C129.57 32.9448 129.079 30.158 128.69 27.435H128.611C128.222 30.158 127.728 32.9448 127.134 35.7986L125.536 43.298H116.703L112.308 23.3522H118.611L119.896 30.6934C120.414 33.5989 120.83 36.4253 121.141 39.1756H121.219C121.686 36.0602 122.217 33.2217 122.814 30.6539L124.448 23.3491H132.853L134.487 30.6539C135.084 33.2186 135.615 36.0602 136.082 39.1756H136.16C136.471 36.4283 136.887 33.5989 137.405 30.6934L138.69 23.3522H144.99V23.3491Z" fill="white"/>
<path d="M155.069 22.7227C161.062 22.7227 164.056 25.4182 164.056 30.8124V37.6851C164.056 40.0673 164.252 41.9384 164.641 43.3014H158.804C158.623 42.5681 158.533 41.7041 158.533 40.7092H158.454C156.95 42.7781 154.809 43.8125 152.036 43.8125C149.935 43.8125 148.273 43.2375 147.056 42.0844C145.835 40.9313 145.226 39.468 145.226 37.6851C145.226 35.9327 145.829 34.5302 147.034 33.4836C148.24 32.437 150.257 31.6916 153.085 31.2444C154.719 30.9827 156.302 30.8002 157.833 30.6937V29.9879C157.833 27.8947 156.911 26.8481 155.072 26.8481C153.257 26.8481 152.322 27.7791 152.271 29.635H146.046C146.148 27.6209 146.953 25.9628 148.457 24.6667C149.959 23.3707 152.163 22.7227 155.069 22.7227ZM157.83 34.9713V34.2655C156.585 34.3172 155.418 34.448 154.327 34.6579C153.368 34.8405 152.675 35.1356 152.244 35.5402C151.816 35.9479 151.602 36.5016 151.602 37.2075C151.602 37.9133 151.822 38.47 152.262 38.8777C152.702 39.2824 153.326 39.4862 154.131 39.4862C155.506 39.4862 156.465 39.0937 157.01 38.3088C157.559 37.5239 157.83 36.4134 157.83 34.9713Z" fill="white"/>
<path d="M179.735 23.3487H186.311L179.735 42.9417C178.75 45.8989 177.556 47.9556 176.157 49.1056C174.755 50.2586 172.783 50.8337 170.242 50.8337C169.126 50.8337 168.011 50.715 166.896 50.4807V45.5338C167.52 45.7438 168.18 45.8472 168.879 45.8472C169.787 45.8472 170.513 45.619 171.059 45.1596C171.605 44.7002 171.876 44.0674 171.876 43.2551C171.876 42.6527 171.511 41.3688 170.788 39.4065L164.99 23.3457H171.954L173.86 30.0207C174.689 33.1087 175.352 35.8834 175.843 38.3447H175.922C176.467 35.57 177.128 32.7832 177.905 29.9811L179.735 23.3487Z" fill="white"/>
<path d="M211.48 46.8028C220.021 46.8028 229.418 32.8139 228.818 19.9294C228.315 6.96886 221.384 0.546387 211.48 0.546387C201.574 0.546387 194.64 6.96886 194.139 19.9294C193.536 32.817 201.526 46.8028 211.48 46.8028Z" fill="#024190"/>
<path d="M215.33 22.1743C210.356 22.08 206.434 18.0671 206.434 13.0959L206.437 1.1697C208.092 0.734638 209.732 0.542969 211.513 0.542969C215.665 0.542969 219.334 1.72342 222.086 3.91393C218.119 7.04759 215.692 12.3657 215.351 19.926C215.011 27.4863 217.546 35.3752 221.788 40.6507C218.722 44.402 215.029 46.8146 211.477 46.8146C209.729 46.8146 208.028 46.3643 206.437 45.5825L206.449 32.8257C206.449 27.8119 210.522 23.7351 215.415 23.7351C215.378 23.2057 215.372 23.1236 215.33 22.1743Z" fill="white"/>
<path d="M232.689 46.8028C241.23 46.8028 250.627 32.8139 250.027 19.9294C249.524 6.96886 242.593 0.546387 232.689 0.546387C222.783 0.546387 215.849 6.96886 215.348 19.9294C214.745 32.817 222.738 46.8028 232.689 46.8028Z" fill="#FFC43C"/>
<path d="M194.206 23.7319C194.884 32.3845 199.105 40.8667 204.893 44.694V32.8104C204.893 27.7966 200.866 23.7319 195.897 23.7319H194.206Z" fill="white"/>
<path d="M246.56 22.6798C245.029 24.2527 243.012 25.1137 240.654 25.1137C236.6 25.1137 233.214 22.2295 232.4 18.384L234.944 17.0331L232.228 16.0504C232.228 16.0504 231.716 11.1461 225.734 12.3783C219.94 13.5709 218.984 18.9894 218.984 23.4587C218.984 34.107 225.062 43.219 232.653 43.219C239.491 43.222 246.388 32.6588 246.56 22.6798Z" fill="white"/>
<path d="M228.571 15.8798C228.571 16.5552 228.029 17.1028 227.359 17.1028C226.69 17.1028 226.147 16.5552 226.147 15.8798C226.147 15.2044 226.69 14.6567 227.359 14.6567C228.029 14.6567 228.571 15.2044 228.571 15.8798Z" fill="#FFC43C"/>
<path d="M194.124 22.187L195.906 22.1901C200.874 22.1901 204.902 18.1254 204.902 13.1116V1.66309C198.613 4.01181 194.522 10.0844 194.146 19.9296C194.109 20.6841 194.103 21.4264 194.124 22.187Z" fill="white"/>
</g>
<defs>
<clipPath id="clip0_6_2405">
<rect width="250" height="51" fill="white"/>
</clipPath>
</defs>
</svg>
