<svg xmlns="http://www.w3.org/2000/svg" width="320" height="65" viewBox="0 0 320 65" fill="none">
    <g clip-path="url(#clip0_2_523)">
        <path d="M7.14986 19.5491H15.7667V43.1207C15.7667 47.3899 14.7789 50.5346 12.8031 52.5548C10.8274 54.575 7.73255 55.5832 3.5148 55.5832C1.95195 55.5832 0.659226 55.4319 -0.371094 55.1334V47.925C0.392964 48.0917 1.13773 48.177 1.87091 48.177C3.79649 48.177 5.15867 47.6846 5.9536 46.6997C6.75239 45.7148 7.14986 43.8885 7.14986 41.2207V19.5491Z" fill="#002677"/>
        <path d="M31.5035 28.9597C39.175 28.9597 43.0068 32.3952 43.0068 39.2701V48.0295C43.0068 51.0656 43.2577 53.4503 43.7555 55.1875H36.2847C36.0531 54.253 35.9374 53.1518 35.9374 51.8838H35.837C33.9115 54.5205 31.1717 55.8389 27.6215 55.8389C24.9319 55.8389 22.8056 55.106 21.2466 53.6365C19.6877 52.1669 18.9043 50.3018 18.9043 48.0295C18.9043 45.796 19.6761 44.0085 21.2196 42.6746C22.7632 41.3407 25.3448 40.3907 28.9644 39.8207C31.0559 39.4873 33.0818 39.2546 35.0421 39.1189V38.2193C35.0421 35.5516 33.8613 34.2177 31.5074 34.2177C29.1843 34.2177 27.9881 35.4042 27.9225 37.7695H19.9539C20.0851 35.2026 21.1154 33.0893 23.041 31.4375C24.9589 29.7856 27.7836 28.9597 31.5035 28.9597ZM35.0383 44.5707V43.6711C33.4445 43.7371 31.9512 43.9038 30.5542 44.1714C29.3271 44.404 28.4357 44.7801 27.8916 45.2958C27.3437 45.8154 27.0697 46.5211 27.0697 47.4207C27.0697 48.3203 27.3514 49.0299 27.9148 49.5495C28.4782 50.0652 29.277 50.325 30.3073 50.325C32.0669 50.325 33.294 49.8248 33.9925 48.8244C34.691 47.824 35.0383 46.4087 35.0383 44.5707Z" fill="#002677"/>
        <path d="M78.0686 29.1111C80.8238 29.1111 82.9886 30.0029 84.5669 31.7905C86.1413 33.5741 86.9324 36.1682 86.9324 39.5727V55.1837H78.6667V40.4723C78.6667 37.2035 77.5554 35.5672 75.3288 35.5672C72.7047 35.5672 71.3927 37.8046 71.3927 42.2715V55.1837H63.127V40.1195C63.127 37.0833 62.0157 35.5633 59.7891 35.5633C57.1342 35.5633 55.8067 37.8007 55.8067 42.2676V55.1837H47.541V29.7625H55.2588V32.6668H55.3591C57.1187 30.2976 59.492 29.115 62.4826 29.115C66.0366 29.115 68.5256 30.5846 69.9534 33.5199C71.9407 30.5768 74.6458 29.1111 78.0686 29.1111Z" fill="#002677"/>
        <path d="M103.266 50.4258C104.427 50.4258 105.388 50.1428 106.152 49.5767C106.916 49.0105 107.364 48.2738 107.495 47.3742H115.911C115.379 49.8442 113.978 51.8954 111.705 53.5318C109.432 55.1681 106.65 55.9824 103.362 55.9824C99.2099 55.9824 95.9839 54.7144 93.6763 52.1785C91.3686 49.6426 90.2148 46.3389 90.2148 42.2713C90.2148 38.4016 91.3764 35.2142 93.6994 32.7132C96.0225 30.2122 99.2099 28.9597 103.262 28.9597C106.218 28.9597 108.741 29.6848 110.833 31.1389C112.924 32.5891 114.418 34.5822 115.317 37.1181C115.981 38.9211 116.312 41.2709 116.312 44.1752H98.3339C98.4999 48.3436 100.144 50.4258 103.266 50.4258ZM103.266 34.4154C100.541 34.4154 98.9475 36.1022 98.4844 39.4718H107.997C107.831 37.7695 107.314 36.5016 106.453 35.6679C105.589 34.8303 104.527 34.4154 103.266 34.4154Z" fill="#002677"/>
        <path d="M130.756 28.9597C134.31 28.9597 137.065 29.6771 139.022 31.1118C140.982 32.5465 141.958 34.6636 141.958 37.4671H134.09C134.09 35.2995 132.959 34.2138 130.702 34.2138C128.742 34.2138 127.765 34.8807 127.765 36.2146C127.765 36.9475 128.105 37.4981 128.784 37.8665C129.463 38.2348 130.853 38.6846 132.944 39.2158C134.206 39.5493 135.178 39.8246 135.857 40.0418C136.537 40.2589 137.393 40.6001 138.424 41.0654C139.454 41.5346 140.241 42.0426 140.789 42.5932C141.337 43.1438 141.819 43.8689 142.232 44.7685C142.649 45.6681 142.854 46.6879 142.854 47.8201C142.854 50.2901 141.808 52.2677 139.716 53.7489C137.625 55.234 134.754 55.9746 131.099 55.9746C123.031 55.9746 118.998 52.954 118.998 46.9167H127.314C127.314 49.3169 128.611 50.5189 131.2 50.5189C132.23 50.5189 133.017 50.3289 133.565 49.945C134.113 49.5611 134.387 49.0532 134.387 48.4173C134.387 47.5487 133.997 46.9089 133.218 46.4901C132.439 46.0752 130.883 45.5634 128.56 44.9624C127.399 44.6638 126.519 44.4273 125.921 44.2605C125.323 44.0938 124.543 43.7836 123.579 43.3338C122.614 42.884 121.9 42.4071 121.437 41.9069C120.97 41.4067 120.549 40.7242 120.167 39.8556C119.785 38.9871 119.596 38.0022 119.596 36.9048C119.596 34.5356 120.576 32.6201 122.533 31.1505C124.497 29.6926 127.237 28.9597 130.756 28.9597Z" fill="#002677"/>
        <path d="M185.588 29.7585L179.962 55.1836H168.655L166.614 45.6255C165.85 41.9883 165.221 38.4365 164.723 34.9661H164.623C164.125 38.4365 163.492 41.9883 162.732 45.6255L160.687 55.1836H149.38L143.754 29.7624H151.823L153.467 39.119C154.13 42.822 154.663 46.4243 155.06 49.9296H155.161C155.759 45.959 156.438 42.3412 157.202 39.0685L159.294 29.7585H170.052L172.144 39.0685C172.908 42.3373 173.587 45.959 174.185 49.9296H174.285C174.683 46.4281 175.215 42.822 175.879 39.119L177.523 29.7624H185.588V29.7585Z" fill="#002677"/>
        <path d="M198.488 28.9597C206.159 28.9597 209.991 32.3952 209.991 39.2701V48.0295C209.991 51.0656 210.242 53.4503 210.74 55.1875H203.269C203.038 54.253 202.922 53.1518 202.922 51.8838H202.821C200.896 54.5205 198.156 55.8389 194.606 55.8389C191.916 55.8389 189.79 55.106 188.231 53.6365C186.668 52.1669 185.889 50.3018 185.889 48.0295C185.889 45.796 186.66 44.0085 188.204 42.6746C189.748 41.3407 192.329 40.3907 195.949 39.8207C198.04 39.4873 200.066 39.2546 202.026 39.1189V38.2193C202.026 35.5516 200.846 34.2177 198.492 34.2177C196.169 34.2177 194.972 35.4042 194.907 37.7695H186.938C187.07 35.2026 188.1 33.0893 190.025 31.4375C191.947 29.7856 194.768 28.9597 198.488 28.9597ZM202.023 44.5707V43.6711C200.429 43.7371 198.936 43.9038 197.539 44.1714C196.311 44.404 195.424 44.7801 194.872 45.2958C194.324 45.8154 194.05 46.5211 194.05 47.4207C194.05 48.3203 194.332 49.0299 194.895 49.5495C195.459 50.0652 196.257 50.325 197.288 50.325C199.047 50.325 200.275 49.8248 200.973 48.8244C201.675 47.824 202.023 46.4087 202.023 44.5707Z" fill="#002677"/>
        <path d="M230.061 29.7585H238.477L230.061 54.7299C228.799 58.4989 227.271 61.1201 225.481 62.5859C223.686 64.0555 221.163 64.7883 217.91 64.7883C216.482 64.7883 215.054 64.6371 213.626 64.3385V58.0336C214.425 58.3012 215.27 58.433 216.165 58.433C217.327 58.433 218.257 58.1422 218.955 57.5567C219.654 56.9712 220.001 56.1646 220.001 55.1293C220.001 54.3616 219.534 52.7253 218.608 50.2242L211.188 29.7546H220.102L222.54 38.262C223.601 42.1977 224.45 45.734 225.079 48.871H225.18C225.878 45.3346 226.723 41.7828 227.719 38.2116L230.061 29.7585Z" fill="#002677"/>
        <path d="M270.694 59.6506C281.626 59.6506 293.655 41.8216 292.887 25.4002C292.242 8.8818 283.371 0.696289 270.694 0.696289C258.014 0.696289 249.139 8.8818 248.498 25.4002C247.726 41.8255 257.952 59.6506 270.694 59.6506Z" fill="white"/>
        <path d="M275.624 28.2618C269.257 28.1416 264.236 23.0271 264.236 16.6912L264.24 1.49116C266.359 0.936668 268.458 0.692383 270.739 0.692383C276.052 0.692383 280.748 2.19687 284.272 4.98871C279.193 8.98259 276.087 15.7605 275.651 25.3963C275.215 35.032 278.46 45.0865 283.89 51.8101C279.965 56.5912 275.238 59.6661 270.692 59.6661C268.454 59.6661 266.278 59.0922 264.24 58.0956L264.256 41.8371C264.256 35.4469 269.469 30.251 275.732 30.251C275.686 29.5763 275.678 29.4716 275.624 28.2618Z" fill="#002677"/>
        <path d="M297.843 59.6506C308.775 59.6506 320.803 41.8216 320.035 25.4002C319.391 8.8818 310.519 0.696289 297.843 0.696289C285.162 0.696289 276.287 8.8818 275.646 25.4002C274.875 41.8255 285.105 59.6506 297.843 59.6506Z" fill="#FFC43C"/>
        <path d="M248.584 30.2471C249.452 41.2748 254.855 52.0854 262.264 56.9634V41.8177C262.264 35.4275 257.108 30.2471 250.749 30.2471H248.584Z" fill="#002677"/>
        <path d="M315.598 28.9054C313.638 30.9101 311.056 32.0075 308.038 32.0075C302.848 32.0075 298.515 28.3316 297.473 23.4303L300.73 21.7087L297.253 20.4563C297.253 20.4563 296.597 14.2057 288.941 15.7761C281.524 17.2961 280.301 24.202 280.301 29.8981C280.301 43.4695 288.08 55.0828 297.797 55.0828C306.549 55.0867 315.378 41.6238 315.598 28.9054Z" fill="white"/>
        <path d="M292.571 20.2392C292.571 21.1 291.877 21.798 291.02 21.798C290.163 21.798 289.469 21.1 289.469 20.2392C289.469 19.3784 290.163 18.6804 291.02 18.6804C291.877 18.6804 292.571 19.3784 292.571 20.2392Z" fill="#FFC43C"/>
        <path d="M248.48 28.2773L250.761 28.2812C257.12 28.2812 262.276 23.1008 262.276 16.7106V2.11938C254.226 5.11285 248.99 12.8524 248.507 25.4002C248.461 26.3618 248.453 27.308 248.48 28.2773Z" fill="#002677"/>
    </g>
    <defs>
        <clipPath id="clip0_2_523">
            <rect width="320" height="65" fill="white"/>
        </clipPath>
    </defs>
</svg>
