<?xml version="1.0" encoding="UTF-8"?>
<svg width="293px" height="63px" viewBox="0 0 293 63" version="1.1" xmlns="http://www.w3.org/2000/svg" xmlns:xlink="http://www.w3.org/1999/xlink">
    <!-- Generator: sketchtool 52.3 (67297) - http://www.bohemiancoding.com/sketch -->
    <title>A2DF0909-03E8-4193-A5BF-34DAE8A20EC6@2x</title>
    <desc>Created with sketchtool.</desc>
    <defs>
        <polygon id="path-1" points="0.293787634 0.0999310345 20.6860363 0.0999310345 20.6860363 11.2024138 0.293787634 11.2024138"></polygon>
        <polygon id="path-3" points="0.278822581 0.0999310345 16.6060901 0.0999310345 16.6060901 11.2024138 0.278822581 11.2024138"></polygon>
    </defs>
    <g id="Page-1" stroke="none" stroke-width="1" fill="none" fill-rule="evenodd">
        <g id="Home" transform="translate(-111.000000, -40.000000)">
            <g id="Logo/L_Q_Jamesway_horizontal_Pos_Baseline" transform="translate(111.000000, 40.000000)">
                <g id="L_Q_Jamesway_horizontal_Pos_Baseline">
                    <path d="M156.334797,19.6646897 L158.634296,1.40736207 L150.685095,1.40736207 C149.441421,9.28851724 149.477652,11.8664483 148.327312,19.6646897 L156.334797,19.6646897" id="Fill-1" fill="#DA322A"></path>
                    <polyline id="Fill-2" fill="#DA322A" points="141.834448 21.1187586 144.678595 36.9625345 154.1562 36.9625345 156.151672 21.1187586 141.834448 21.1187586"></polyline>
                    <polyline id="Fill-3" fill="#DA322A" points="134.746919 19.6646897 132.317855 1.40736207 123.682625 1.40736207 126.485422 19.6643276 134.746919 19.6646897"></polyline>
                    <polyline id="Fill-4" fill="#DA322A" points="77.8990121 19.6643276 77.8990121 1.40736207 66.0644113 1.40736207 62.5755847 19.6639655 77.8990121 19.6643276"></polyline>
                    <path d="M62.1790108,19.6639655 C61.4650202,15.9397241 59.0300484,3.2292931 58.701211,1.40736207 L46.7906035,1.40736207 L46.7906035,19.6639655 L62.1790108,19.6639655" id="Fill-5" fill="#DA322A"></path>
                    <path d="M29.6587675,19.6639655 C29.9659449,17.0357069 30.5763616,15.4067586 31.4900175,9.33522414 C31.9586599,14.7568448 32.4253333,16.2467586 32.8912191,19.6639655 L41.3047298,19.6639655 L38.3518884,1.40736207 L23.8160954,1.40736207 L21.1826398,19.6639655 L29.6587675,19.6639655" id="Fill-6" fill="#DA322A"></path>
                    <polygon id="Fill-7" fill="#DA322A" points="69.1184637 36.9625345 77.8990121 36.9625345 77.8990121 21.1187586 69.1184637 21.1187586"></polygon>
                    <polyline id="Fill-8" fill="#DA322A" points="16.4229651 19.6639655 16.4229651 1.40844828 6.36644892 1.40844828 6.36644892 19.6636034 16.4229651 19.6639655"></polyline>
                    <path d="M6.36644892,21.1187586 L6.36644892,25.3955172 C6.36644892,26.7435 6.33415591,27.6508448 6.27075134,28.119 C6.20734677,28.5875172 5.96829973,28.9832586 5.55400403,29.3047759 C5.14010215,29.6270172 4.57536828,29.7885 3.85862097,29.7885 C3.58767473,29.7885 0.917200269,29.7664138 0.312297043,29.7222414 L0.312297043,36.9636207 L7.58098118,36.9636207 C9.80880511,36.9636207 11.4762272,36.8061207 12.5820659,36.4914828 C13.6875108,36.1772069 14.5649355,35.6094828 15.2119772,34.7890345 C15.8598065,33.9696724 16.2229059,33.0511034 16.3032446,32.0336897 C16.3827957,31.0159138 16.4229651,28.7283621 16.4229651,25.1706724 L16.4229651,21.1187586 L6.36644892,21.1187586" id="Fill-9" fill="#DA322A"></path>
                    <polyline id="Fill-10" fill="#DA322A" points="20.9727352 21.1187586 18.6870202 36.9625345 29.0834005 36.9625345 29.6883038 26.496569 33.2854301 26.496569 33.8253535 36.9625345 44.1028011 36.9625345 41.5398387 21.1187586 20.9727352 21.1187586"></polyline>
                    <polygon id="Fill-11" fill="#DA322A" points="46.7906035 36.9625345 55.5766653 36.9625345 55.5766653 21.1187586 46.7906035 21.1187586"></polygon>
                    <polyline id="Fill-12" fill="#DA322A" points="55.8038978 21.1187586 59.3628239 36.9625345 65.5973441 36.9625345 68.908953 21.1187586 55.8038978 21.1187586"></polyline>
                    <polyline id="Fill-13" fill="#DA322A" points="92.1922137 21.1187586 82.1356976 21.1187586 82.1356976 36.9625345 99.5731358 36.9625345 99.5731358 29.8471552 92.1922137 29.8471552 92.1922137 21.1187586"></polyline>
                    <path d="M108.226481,21.1187586 C108.417089,21.236069 108.611634,21.3559138 108.815632,21.4801034 C111.315977,22.9881207 112.884551,24.0641897 113.521747,24.7083103 C114.142797,25.3527931 114.453519,26.7214138 114.453519,28.8148966 C114.453519,29.7671379 114.290085,30.4840345 113.963216,30.9670345 C113.636742,31.4507586 113.139351,31.6922586 112.470649,31.6922586 C111.801948,31.6922586 111.335668,31.5018103 111.072992,31.1212759 C110.810316,30.7403793 110.678781,29.8840862 110.678781,28.5513103 L110.678781,24.2253103 L101.339406,24.2253103 L101.339406,26.5530517 C101.339406,29.2178793 101.633587,31.274431 102.222738,32.7237931 C102.812282,34.1731552 104.05832,35.3668966 105.961638,36.303569 C107.863776,37.2402414 110.161305,37.7094828 112.853046,37.7094828 C115.304558,37.7094828 117.4548,37.3028793 119.302196,36.4907586 C121.149199,35.6775517 122.395237,34.6717241 123.040309,33.4707414 C123.684988,32.2701207 124.007524,30.4040172 124.007524,27.8709828 C124.007524,24.9317069 123.583383,22.6919483 122.755973,21.1187586 L108.226481,21.1187586" id="Fill-14" fill="#DA322A"></path>
                    <polyline id="Fill-15" fill="#DA322A" points="126.708716 21.1187586 129.141325 36.9625345 138.830016 36.9625345 141.451263 21.1187586 126.708716 21.1187586"></polyline>
                    <polyline id="Fill-16" fill="#DA322A" points="160.523043 21.1187586 158.237328 36.9625345 168.633708 36.9625345 169.238612 26.496569 172.835738 26.496569 173.375661 36.9625345 183.653109 36.9625345 181.09054 21.1187586 160.523043 21.1187586"></polyline>
                    <polygon id="Fill-17" fill="#DA322A" points="187.699187 36.9625345 197.014933 36.9625345 197.014933 21.1187586 187.699187 21.1187586"></polygon>
                    <path d="M197.180336,19.6650517 L204.347809,1.40736207 L195.109645,1.40736207 C193.800203,6.95498276 192.866462,7.65522414 192.308817,11.4486207 C192.124511,9.04846552 191.310491,8.34713793 189.866363,1.40736207 L180.628199,1.40736207 L187.539691,19.6650517 L197.180336,19.6650517" id="Fill-18" fill="#DA322A"></path>
                    <path d="M169.196473,19.6646897 C169.498925,17.0860345 170.11328,15.4969138 171.040325,9.33522414 C171.514875,14.8234655 171.987456,16.2847759 172.458855,19.6646897 L180.855431,19.6650517 L177.902196,1.40736207 L163.366797,1.40736207 L160.732948,19.6646897 L169.196473,19.6646897" id="Fill-19" fill="#DA322A"></path>
                    <path d="M148.035493,19.6646897 C147.531407,15.786931 145.777345,2.29696552 145.658806,1.40736207 L137.682433,1.40736207 C136.284776,10.8845172 135.888595,14.1130862 135.046614,19.6646897 L148.035493,19.6646897" id="Fill-20" fill="#DA322A"></path>
                    <path d="M103.847234,18.1639138 C104.289491,18.5386552 104.991273,19.041569 105.935647,19.6643276 L121.713933,19.6643276 C120.332028,18.201569 117.708418,16.4096897 113.80569,14.28 C112.244598,13.4320345 111.297074,12.7068103 110.963905,12.1061379 C110.614589,11.5054655 110.440128,10.6115172 110.440128,9.42501724 C110.440128,8.50210345 110.595685,7.81381034 110.906013,7.35941379 C111.216735,6.90501724 111.674351,6.678 112.279254,6.678 C112.836899,6.678 113.234655,6.84672414 113.474095,7.18344828 C113.712749,7.52017241 113.832469,8.30332759 113.832469,9.53327586 L113.832469,12.1684138 L123.171844,12.1684138 L123.171844,10.7632241 C123.171844,7.93763793 122.873331,5.93539655 122.276304,4.7565 C121.679277,3.57796552 120.460413,2.60110345 118.621286,1.82482759 C116.782554,1.04891379 114.556699,0.660413793 111.944903,0.660413793 C109.556402,0.660413793 107.51761,1.01596552 105.82971,1.72598276 C104.142203,2.436 102.919794,3.42046552 102.163665,4.67974138 C101.406749,5.93937931 101.028684,7.92967241 101.028684,10.6531552 C101.028684,12.5417069 101.295692,14.0935345 101.829315,15.3093621 C102.362149,16.5241034 103.035183,17.4756207 103.847234,18.1639138" id="Fill-21" fill="#DA322A"></path>
                    <polyline id="Fill-22" fill="#DA322A" points="98.4743858 19.6643276 98.4743858 13.2915517 92.1922137 13.2915517 92.1922137 8.52274138 98.9040403 8.52274138 98.9040403 1.40736207 82.1356976 1.40736207 82.1356976 19.6643276 98.4743858 19.6643276"></polyline>
                    <path d="M262.414581,19.6646897 C265.285114,19.6570862 270.53903,19.5173276 272.974789,16.8105 C275.125819,14.4201207 275.913059,6.40681034 275.934719,0.256344828 C268.28797,0.841448276 262.155055,9.74762069 260.918863,19.6636034 L262.414581,19.6646897" id="Fill-23" fill="#DA322A"></path>
                    <g id="Group-27" transform="translate(277.247312, 0.000000)" fill="#DA322A">
                        <path d="M3.24702285,16.8105 C5.76548387,19.608931 11.1859839,19.6643276 14.2309785,19.6654138 L15.296254,19.6654138 C14.0608495,9.75124138 7.93069086,0.846155172 0.287092742,0.256706897 C0.308358871,6.40753448 1.09559946,14.4204828 3.24702285,16.8105" id="Fill-24"></path>
                        <path d="M15.4080981,21.1187586 L15.4080981,21.1191207 L14.4176478,21.120569 C11.427,21.1115172 5.81668011,21.1491724 3.24702285,24.0048103 C0.851826613,26.6663793 0.376489247,35.6652414 0.287486559,38.4285517 C8.70847984,38.0755345 15.6845578,30.9025862 15.4096734,21.1187586 L15.4080981,21.1187586" id="Fill-26"></path>
                    </g>
                    <path d="M272.974789,23.9903276 C270.394499,21.1231034 264.714473,21.1212931 261.984926,21.120569 L260.815289,21.1202069 L260.815289,21.1187586 L260.805444,21.1187586 C260.530953,30.9054828 267.510575,38.0795172 275.934719,38.4289138 C275.846504,35.6826207 275.373923,26.6558793 272.974789,23.9903276" id="Fill-28" fill="#DA322A"></path>
                    <path d="M228.917277,21.1187586 C228.634516,31.1538621 235.938644,38.4513621 244.648305,38.4513621 C244.713679,38.4513621 244.778265,38.4495517 244.843245,38.4488276 C244.907831,38.4495517 244.97281,38.4513621 245.037397,38.4513621 C253.747058,38.4513621 261.051579,31.1538621 260.768425,21.1187586 L228.917277,21.1187586" id="Fill-29" fill="#174489"></path>
                    <path d="M260.655399,19.6654138 C259.376675,9.40510345 252.858212,0.212534483 244.843245,0.212534483 C236.827489,0.212534483 230.309027,9.40510345 229.030302,19.6650517 L260.655399,19.6654138" id="Fill-30" fill="#174489"></path>
                    <polyline id="Fill-31" fill="#B4B5B4" points="0 50.0458966 0 52.3779828 1.71783065 52.3779828 1.71783065 61.6074828 4.6171129 61.6074828 4.6171129 52.3779828 6.33454973 52.3779828 6.33454973 50.0458966 0 50.0458966"></polyline>
                    <path d="M9.83440323,50.0458966 L12.6395632,50.0458966 L12.6395632,52.8472241 L12.6710685,52.8472241 C12.9231116,52.232069 13.7741505,51.875431 14.3731465,51.875431 C15.5545981,51.875431 16.2796156,52.6690862 16.2796156,54.4019483 L16.2796156,61.6074828 L13.4748495,61.6074828 L13.4748495,54.4993448 C13.4748495,54.2075172 13.396086,53.8190172 13.0333804,53.8190172 C12.6553159,53.8190172 12.6395632,54.2238103 12.6395632,54.5152759 L12.6395632,61.6074828 L9.83440323,61.6074828 L9.83440323,50.0458966" id="Fill-32" fill="#B4B5B4"></path>
                    <path d="M20.0949167,55.0171034 C20.0949167,52.5561207 21.8596116,51.875431 23.4041626,51.875431 C24.7592876,51.875431 26.5239825,52.6368621 26.5239825,55.0171034 L26.5239825,57.0088448 L22.899289,57.0088448 L22.899289,59.4861207 C22.899289,59.8586897 22.9784462,60.1016379 23.3250054,60.1016379 C23.7188226,60.1016379 23.8137325,59.7938793 23.8137325,59.4376034 L23.8137325,57.7376897 L26.5239825,57.7376897 L26.5239825,58.7094828 C26.5239825,61.1701034 24.8849153,61.850431 23.4041626,61.850431 C21.8596116,61.850431 20.0949167,61.1701034 20.0949167,58.7094828 L20.0949167,55.0171034 Z M22.899289,55.4544828 L23.8137325,55.4544828 L23.8137325,54.2882586 C23.8137325,53.9323448 23.7188226,53.6249483 23.3250054,53.6249483 C22.9784462,53.6249483 22.899289,53.8675345 22.899289,54.2393793 L22.899289,55.4544828 Z" id="Fill-33" fill="#B4B5B4"></path>
                    <polygon id="Fill-34" fill="#B4B5B4" points="36.5958575 61.6078448 39.4951398 61.6078448 39.4951398 50.0462586 36.5958575 50.0462586"></polygon>
                    <path d="M43.2623952,52.1187414 L46.0671613,52.1187414 L46.0671613,52.8475862 L46.0986667,52.8475862 C46.3195981,52.3776207 46.9497056,51.8757931 47.8007446,51.8757931 C48.9821962,51.8757931 49.7072137,52.6687241 49.7072137,54.4019483 L49.7072137,61.6078448 L46.9028414,61.6078448 L46.9028414,54.4989828 C46.9028414,54.2071552 46.8236841,53.8186552 46.4613723,53.8186552 C46.082914,53.8186552 46.0671613,54.2238103 46.0671613,54.5149138 L46.0671613,61.6078448 L43.2623952,61.6078448 L43.2623952,52.1187414" id="Fill-35" fill="#B4B5B4"></path>
                    <path d="M53.5229086,55.0171034 C53.5229086,52.5561207 55.2876035,51.875431 56.8321546,51.875431 C58.7071183,51.875431 59.9519745,52.8961034 59.9519745,54.9363621 L59.9519745,55.7300172 L57.2417245,55.7300172 L57.2417245,54.174931 C57.2417245,53.9160517 57.2102191,53.6249483 56.7845027,53.6249483 C56.3591801,53.6249483 56.3272809,53.9160517 56.3272809,54.174931 L56.3272809,59.3568621 C56.3272809,59.8427586 56.4064382,60.1016379 56.8321546,60.1016379 C57.2102191,60.1016379 57.3362406,59.8427586 57.3362406,59.3242759 L57.3362406,57.6888103 L60.0468844,57.6888103 L60.0468844,58.1587759 C60.0468844,61.1219483 58.6283548,61.850431 56.8321546,61.850431 C55.2876035,61.850431 53.5229086,61.1701034 53.5229086,58.7094828 L53.5229086,55.0171034" id="Fill-36" fill="#B4B5B4"></path>
                    <path d="M63.6408602,52.1187414 L66.4460202,52.1187414 L66.4460202,59.2272414 C66.4460202,59.5187069 66.5243898,59.9072069 66.8867016,59.9072069 C67.2651599,59.9072069 67.2813065,59.5027759 67.2813065,59.2109483 L67.2813065,52.1187414 L70.0856788,52.1187414 L70.0856788,61.6078448 L67.2813065,61.6078448 L67.2813065,60.879 L67.2494073,60.879 C66.9973642,61.4941552 66.1463253,61.8507931 65.5473293,61.8507931 C64.3658777,61.8507931 63.6408602,61.0567759 63.6408602,59.3242759 L63.6408602,52.1187414" id="Fill-37" fill="#B4B5B4"></path>
                    <path d="M76.5482191,61.6074828 L73.9013737,61.6074828 L73.9013737,50.0458966 L76.705746,50.0458966 L76.705746,52.9442586 L76.7376452,52.9442586 C77.1472151,52.3776207 77.7619637,51.875431 78.4869812,51.875431 C79.6526801,51.875431 80.5037191,52.7338966 80.5037191,54.741569 L80.5037191,59.3242759 C80.5037191,60.5712414 80.06225,61.850431 78.5653508,61.850431 C77.6985591,61.850431 77.242125,61.446 76.6746344,60.8301207 L76.5482191,61.6074828 Z M76.705746,59.162431 C76.705746,59.7453621 76.8160148,60.0042414 77.242125,60.0042414 C77.494168,60.0042414 77.6985591,59.7779483 77.6985591,59.5183448 L77.6985591,54.5152759 C77.6985591,54.2075172 77.5256734,53.9160517 77.242125,53.9160517 C76.8794194,53.9160517 76.705746,54.2075172 76.705746,54.5637931 L76.705746,59.162431 Z" id="Fill-38" fill="#B4B5B4"></path>
                    <path d="M90.5433011,61.6074828 L87.8330511,61.6074828 L87.8330511,61.073069 C87.4234812,61.5108103 86.7772272,61.850431 86.0679624,61.850431 C84.8703642,61.850431 84.2398629,61.0241897 84.2398629,59.8261034 L84.2398629,58.5472759 C84.2398629,57.4621552 84.3032675,57.0736552 86.0210981,56.4262759 C87.5963669,55.8103966 87.7381411,55.6485517 87.7381411,55.0982069 L87.7381411,53.8997586 C87.7381411,53.6249483 87.5806142,53.3331207 87.2659543,53.3331207 C86.9505067,53.3331207 86.8402379,53.6082931 86.8402379,53.8997586 L86.8402379,55.7781724 L84.2398629,55.7781724 L84.2398629,54.7741552 C84.2398629,52.6853793 85.2169234,51.875431 87.3285712,51.875431 C89.3141976,51.875431 90.5433011,52.4750172 90.5433011,54.6767586 L90.5433011,61.6074828 Z M86.8402379,59.5183448 C86.8402379,59.7938793 86.9981586,60.0531207 87.2502016,60.0531207 C87.5963669,60.0531207 87.7381411,59.7779483 87.7381411,59.5672241 L87.7381411,57.0895862 C87.1556855,57.4621552 86.8402379,57.8669483 86.8402379,58.5306207 L86.8402379,59.5183448 Z" id="Fill-39" fill="#B4B5B4"></path>
                    <path d="M94.0116492,52.1187414 L94.5948925,52.1187414 L94.5948925,50.6610517 L97.4941747,50.6610517 L97.4941747,52.1187414 L98.2345511,52.1187414 L98.2345511,53.6731034 L97.4941747,53.6731034 L97.4941747,59.6642586 C97.4941747,59.9397931 97.5886909,60.0534828 97.8407339,60.0534828 L98.2345511,60.0534828 L98.2345511,61.6078448 L96.6907876,61.6078448 C94.7992836,61.6078448 94.5948925,60.8467759 94.5948925,59.3731552 L94.5948925,53.6731034 L94.0116492,53.6731034 L94.0116492,52.1187414" id="Fill-40" fill="#B4B5B4"></path>
                    <path d="M101.702899,55.0171034 C101.702899,52.5561207 103.467594,51.875431 105.012145,51.875431 C106.556302,51.875431 108.320997,52.5561207 108.320997,55.0171034 L108.320997,58.7094828 C108.320997,61.1701034 106.556302,61.850431 105.012145,61.850431 C103.467594,61.850431 101.702899,61.1701034 101.702899,58.7094828 L101.702899,55.0171034 Z M104.507665,59.2761207 C104.507665,59.5998103 104.665586,59.907569 105.012145,59.907569 C105.35831,59.907569 105.516625,59.5998103 105.516625,59.2761207 L105.516625,54.2560345 C105.516625,53.9323448 105.35831,53.6249483 105.012145,53.6249483 C104.665586,53.6249483 104.507665,53.9323448 104.507665,54.2560345 L104.507665,59.2761207 Z" id="Fill-41" fill="#B4B5B4"></path>
                    <path d="M112.136298,52.1187414 L114.846548,52.1187414 L114.846548,53.3334828 L114.878054,53.3334828 C115.146243,52.4265 115.981136,51.9406034 116.611243,51.8757931 L116.611243,55.3252241 C116.45411,55.308569 116.296583,55.2926379 116.139056,55.2926379 C115.38214,55.2926379 114.941458,55.7944655 114.941458,56.5392414 L114.941458,61.6078448 L112.136298,61.6078448 L112.136298,52.1187414" id="Fill-42" fill="#B4B5B4"></path>
                    <path d="M125.627294,53.3816379 C125.627294,51.5521034 126.336559,49.8029483 129.140931,49.8029483 C131.268332,49.8029483 132.38756,51.0176897 132.38756,53.0579483 L132.38756,54.6930517 L129.487884,54.6930517 L129.487884,52.5394655 C129.487884,52.1509655 129.487884,51.7465345 128.968046,51.7465345 C128.636845,51.7465345 128.52697,52.1020862 128.52697,52.5072414 L128.52697,59.1465 C128.52697,59.5512931 128.636845,59.9072069 128.968046,59.9072069 C129.487884,59.9072069 129.487884,59.4701897 129.487884,58.968 L129.487884,56.6199828 L132.38756,56.6199828 L132.38756,58.5309828 C132.38756,60.5712414 131.14231,61.8507931 129.078315,61.8507931 C126.162886,61.8507931 125.627294,60.1016379 125.627294,58.2721034 L125.627294,53.3816379" id="Fill-43" fill="#B4B5B4"></path>
                    <path d="M135.966177,55.0171034 C135.966177,52.5561207 137.730872,51.875431 139.275423,51.875431 C140.819581,51.875431 142.585063,52.5561207 142.585063,55.0171034 L142.585063,58.7094828 C142.585063,61.1701034 140.819581,61.850431 139.275423,61.850431 C137.730872,61.850431 135.966177,61.1701034 135.966177,58.7094828 L135.966177,55.0171034 Z M138.771337,59.2761207 C138.771337,59.5998103 138.928864,59.907569 139.275423,59.907569 C139.621589,59.907569 139.779903,59.5998103 139.779903,59.2761207 L139.779903,54.2560345 C139.779903,53.9323448 139.621589,53.6249483 139.275423,53.6249483 C138.928864,53.6249483 138.771337,53.9323448 138.771337,54.2560345 L138.771337,59.2761207 Z" id="Fill-44" fill="#B4B5B4"></path>
                    <g id="Group-48" transform="translate(146.106183, 51.775862)">
                        <mask id="mask-2" fill="white">
                            <use xlink:href="#path-1"></use>
                        </mask>
                        <g id="Clip-46"></g>
                        <path d="M0.293787634,0.34287931 L3.09815995,0.34287931 L3.09815995,1.07172414 L3.12966532,1.07172414 C3.25608065,0.763603448 3.53962903,0.521017241 3.8546828,0.358810345 C4.17013038,0.181396552 4.5324422,0.0999310345 4.83174328,0.0999310345 C5.71468145,0.0999310345 6.25027285,0.698793103 6.50231586,1.18505172 C6.99064919,0.618413793 7.55774597,0.0999310345 8.34616801,0.0999310345 C9.52761962,0.0999310345 10.2526371,0.892862069 10.2526371,2.62608621 L10.2526371,9.83198276 L7.44747715,9.83198276 L7.44747715,2.72312069 C7.44747715,2.4312931 7.36910753,2.0427931 7.00640188,2.0427931 C6.64409005,2.0427931 6.62833737,2.44794828 6.62833737,2.73905172 L6.62833737,9.83198276 L3.91769355,9.83198276 L3.91769355,2.72312069 C3.91769355,2.4312931 3.83893011,2.0427931 3.49197715,2.0427931 C3.11391263,2.0427931 3.09815995,2.44794828 3.09815995,2.73905172 L3.09815995,9.83198276 L0.293787634,9.83198276 L0.293787634,0.34287931" id="Fill-45" fill="#B4B5B4" mask="url(#mask-2)"></path>
                        <path d="M14.0679382,0.34287931 L16.8730981,0.34287931 L16.8730981,1.13653448 C17.3452849,0.569172414 18.0234382,0.0999310345 18.7795672,0.0999310345 C20.387129,0.0999310345 20.6860363,1.41134483 20.6860363,3.06274138 L20.6860363,6.80363793 C20.6860363,8.29355172 20.5446559,10.074931 18.7008038,10.074931 C17.9442809,10.074931 17.3452849,9.63755172 16.9046035,9.02167241 L16.8730981,9.02167241 L16.8730981,11.2241379 L14.0679382,11.2241379 L14.0679382,0.34287931 Z M16.8730981,7.32175862 C16.8730981,7.77543103 17.030625,8.13134483 17.377578,8.13134483 C17.7556425,8.13134483 17.881664,7.82358621 17.881664,7.32175862 L17.881664,2.6097931 C17.881664,2.205 17.7871478,1.94612069 17.377578,1.94612069 C17.0463777,1.94612069 16.8730981,2.15648276 16.8730981,2.6097931 L16.8730981,7.32175862 Z" id="Fill-47" fill="#B4B5B4" mask="url(#mask-2)"></path>
                    </g>
                    <path d="M176.832195,61.6074828 L174.121945,61.6074828 L174.121945,61.073069 C173.712375,61.5108103 173.065727,61.850431 172.35725,61.850431 C171.159258,61.850431 170.529151,61.0241897 170.529151,59.8261034 L170.529151,58.5472759 C170.529151,57.4621552 170.592161,57.0736552 172.309992,56.4262759 C173.885261,55.8103966 174.027823,55.6485517 174.027823,55.0982069 L174.027823,53.8997586 C174.027823,53.6249483 173.869902,53.3331207 173.554848,53.3331207 C173.239401,53.3331207 173.129132,53.6082931 173.129132,53.8997586 L173.129132,55.7781724 L170.529151,55.7781724 L170.529151,54.7741552 C170.529151,52.6853793 171.506211,51.875431 173.617465,51.875431 C175.603091,51.875431 176.832195,52.4750172 176.832195,54.6767586 L176.832195,61.6074828 Z M173.129132,59.5183448 C173.129132,59.7938793 173.287052,60.0531207 173.539095,60.0531207 C173.885261,60.0531207 174.027823,59.7779483 174.027823,59.5672241 L174.027823,57.0895862 C173.444579,57.4621552 173.129132,57.8669483 173.129132,58.5306207 L173.129132,59.5183448 Z" id="Fill-49" fill="#B4B5B4"></path>
                    <g id="Group-53" transform="translate(180.368280, 51.775862)">
                        <mask id="mask-4" fill="white">
                            <use xlink:href="#path-3"></use>
                        </mask>
                        <g id="Clip-51"></g>
                        <path d="M0.278822581,0.34287931 L3.08319489,0.34287931 L3.08319489,1.07172414 L3.11470027,1.07172414 C3.33602554,0.601758621 3.96652688,0.0999310345 4.81677823,0.0999310345 C5.99901747,0.0999310345 6.72403495,0.892862069 6.72403495,2.62608621 L6.72403495,9.83198276 L3.918875,9.83198276 L3.918875,2.72312069 C3.918875,2.4312931 3.83971774,2.0427931 3.47740591,2.0427931 C3.09894758,2.0427931 3.08319489,2.44794828 3.08319489,2.73905172 L3.08319489,9.83198276 L0.278822581,9.83198276 L0.278822581,0.34287931" id="Fill-50" fill="#B4B5B4" mask="url(#mask-4)"></path>
                        <path d="M10.5862003,9.86384483 L11.2324543,9.86384483 C11.6739234,9.83198276 11.7837984,9.6857069 11.7837984,9.28091379 C11.7837984,9.19981034 11.7207876,8.86018966 11.6896761,8.66612069 L10.1923831,0.34287931 L12.9030269,0.34287931 L13.6280444,7.64544828 L13.6591559,7.64544828 L14.1478831,0.34287931 L16.6060901,0.34287931 L15.5345134,8.47168966 C15.345875,9.89606897 15.0146747,11.2241379 13.5177755,11.2241379 L10.5862003,11.2241379 L10.5862003,9.86384483" id="Fill-52" fill="#B4B5B4" mask="url(#mask-4)"></path>
                    </g>
                </g>
            </g>
        </g>
    </g>
</svg>