<?xml version="1.0" encoding="UTF-8"?>
<svg width="20px" height="20px" viewBox="0 0 20 20" version="1.1" xmlns="http://www.w3.org/2000/svg" xmlns:xlink="http://www.w3.org/1999/xlink">
    <!-- Generator: sketchtool 52.3 (67297) - http://www.bohemiancoding.com/sketch -->
    <title>D081783C-A9DC-4579-92F6-668C7FFEC027@2x</title>
    <desc>Created with sketchtool.</desc>
    <g id="Page-1" stroke="none" stroke-width="1" fill="none" fill-rule="evenodd">
        <g id="News-&amp;-Events" transform="translate(-758.000000, -429.000000)" fill="#FFFFFF" fill-rule="nonzero">
            <path d="M777.745224,447.570302 L772.939465,442.764543 C774.130706,441.312208 774.848714,439.451914 774.848714,437.424357 C774.848714,432.773622 771.075092,429 766.424357,429 C761.769543,429 758,432.773622 758,437.424357 C758,442.075092 761.769543,445.848714 766.424357,445.848714 C768.451914,445.848714 770.308129,445.134786 771.760463,443.943545 L776.566222,448.745224 C776.89259,449.071592 777.418857,449.071592 777.745224,448.745224 C778.071592,448.422937 778.071592,447.89259 777.745224,447.570302 Z M766.424357,444.172002 C762.69969,444.172002 759.672633,441.144945 759.672633,437.424357 C759.672633,433.703769 762.69969,430.672633 766.424357,430.672633 C770.144945,430.672633 773.176082,433.703769 773.176082,437.424357 C773.176082,441.144945 770.144945,444.172002 766.424357,444.172002 Z" id="Shape"></path>
        </g>
    </g>
</svg>