<?xml version="1.0" encoding="UTF-8"?>
<svg width="38px" height="38px" viewBox="0 0 38 38" version="1.1" xmlns="http://www.w3.org/2000/svg" xmlns:xlink="http://www.w3.org/1999/xlink">
    <!-- Generator: sketchtool 52.3 (67297) - http://www.bohemiancoding.com/sketch -->
    <title>CEC2EA60-3D12-4F44-B976-5BB4D65012D8@2x</title>
    <desc>Created with sketchtool.</desc>
    <g id="Page-1" stroke="none" stroke-width="1" fill="none" fill-rule="evenodd">
        <g id="Home" transform="translate(-1619.000000, -6030.000000)" fill="#FFFFFF" fill-rule="nonzero">
            <g id="footer" transform="translate(0.000000, 5741.000000)">
                <g id="Group-7">
                    <g id="social-icons" transform="translate(1462.000000, 289.000000)">
                        <path d="M157,0 L157,38 L195,38 L195,0 L157,0 Z M187.123687,13.6700641 C187.132359,13.8931958 187.137112,14.1171612 187.137112,14.3427109 C187.137112,23.37629 179.813541,30.700694 170.779128,30.700694 C167.563231,30.700694 164.563378,29.7724798 162.034387,28.1685336 C162.033803,28.1684502 162.033219,28.1683669 162.032719,28.1682835 L162.034387,28.1685336 C162.034387,28.1685336 162.034387,28.1685336 162.034387,28.1685336 C166.978386,28.9058853 170.461024,25.7597793 170.461024,25.7597793 C166.055759,25.4171606 165.185329,21.7509978 165.185329,21.7509978 C166.74183,22.0144866 167.717489,21.6449353 167.717489,21.6449353 C162.759147,20.4849176 163.180896,15.947491 163.180896,15.947491 C164.329074,16.6335623 165.660109,16.6865936 165.660109,16.6865936 C161.281776,12.8353217 164.025228,9.09002899 164.025228,9.09002899 C168.615602,14.6489749 175.363166,15.0271981 175.806261,15.0454588 C175.708953,14.627629 175.657506,14.1924556 175.657506,13.7453586 C175.657506,10.5769895 178.226855,8.00839091 181.397642,8.00839091 C183.050701,8.00839091 184.539913,8.70630262 185.587614,9.82446224 C185.878036,9.74299751 186.159702,9.65511234 186.428777,9.56572627 C188.054153,9.0236565 189.215004,8.40404098 189.215004,8.40404098 C188.934922,10.0824478 186.865618,11.4909453 186.717614,11.589837 C186.712111,11.593756 186.708942,11.5953402 186.708942,11.5953402 C186.712111,11.5953402 186.71603,11.5945898 186.719198,11.5945898 C188.325563,11.4339117 189.966781,10.7518426 189.966781,10.7518426 C189.471489,11.7930402 187.450463,13.4128291 187.123687,13.6700641 Z" id="Shape-Copy"></path>
                    </g>
                </g>
            </g>
        </g>
    </g>
</svg>