<?xml version="1.0" encoding="UTF-8"?>
<svg width="29px" height="28px" viewBox="0 0 29 28" version="1.1" xmlns="http://www.w3.org/2000/svg" xmlns:xlink="http://www.w3.org/1999/xlink">
    <!-- Generator: sketchtool 52.3 (67297) - http://www.bohemiancoding.com/sketch -->
    <title>1954EEA1-F83F-4218-B8F1-313ADE30C009@2x</title>
    <desc>Created with sketchtool.</desc>
    <g id="Page-1" stroke="none" stroke-width="1" fill="none" fill-rule="evenodd">
        <g id="Project-detail" transform="translate(-1397.000000, -1658.000000)" fill="#DA322A" fill-rule="nonzero">
            <g id="Group-5" transform="translate(1294.000000, 1658.000000)">
                <path d="M117.716346,0 C110.015335,0 103.75,6.20740353 103.75,13.8372093 C103.75,21.4664577 110.015335,27.6744186 117.716346,27.6744186 C125.416795,27.6744186 131.682692,21.4664577 131.682692,13.8372093 C131.682692,6.20740353 125.41792,0 117.716346,0 Z M123.946801,10.6702463 C123.95299,10.8073588 123.956365,10.9455859 123.956365,11.0838131 C123.956365,15.2924962 120.723842,20.1438243 114.80955,20.1438243 C112.994139,20.1438243 111.304181,19.6182266 109.882006,18.7141762 C110.133474,18.7437167 110.389443,18.7587657 110.648788,18.7587657 C112.155348,18.7587657 113.540957,18.2493316 114.641342,17.3954444 C113.234919,17.3698055 112.047335,16.4490341 111.638347,15.1832522 C111.834121,15.2200384 112.036084,15.240661 112.242547,15.240661 C112.535645,15.240661 112.820305,15.20276 113.089776,15.1297449 C111.61922,14.8376842 110.511521,13.5507223 110.511521,12.0068139 C110.511521,11.9934371 110.511521,11.9795029 110.512083,11.9666835 C110.945262,12.2046795 111.440885,12.3484803 111.96745,12.364644 C111.105594,11.7944569 110.537962,10.8190635 110.537962,9.71436079 C110.537962,9.13023949 110.696044,8.58290446 110.972828,8.11248616 C112.557585,10.0398635 114.927127,11.3073175 117.598207,11.4410858 C117.543075,11.2075487 117.515509,10.9650938 117.515509,10.7148357 C117.515509,8.95634078 118.954561,7.53003696 120.729467,7.53003696 C121.654331,7.53003696 122.488622,7.91685011 123.075944,8.53552821 C123.808972,8.39284209 124.495307,8.12864982 125.118071,7.76245927 C124.876166,8.50654509 124.368166,9.13023949 123.702646,9.52485579 C124.353539,9.44793905 124.974616,9.27738455 125.548999,9.02378227 C125.120321,9.66141086 124.575191,10.2226801 123.946801,10.6702463 Z" id="Shape"></path>
            </g>
        </g>
    </g>
</svg>