<svg xmlns="http://www.w3.org/2000/svg" viewBox="0 0 71 30" enable-background="new 0 0 71 30"><path fill="#939798" d="M0 25.2V4.8c0-1.6.3-2.7 1-3.4.7-.7 1.8-1 3.3-1 1.6 0 2.7.3 3.3 1 .7.7 1 1.8 1 3.4v20.3c0 1.6-.3 2.7-1 3.4-.7.7-1.8 1-3.3 1-1.6 0-2.7-.3-3.3-1-.7-.6-1-1.7-1-3.3zM18.1 4.8c0-.8-.1-1.2-.4-1.4-.3-.2-.9-.3-1.8-.3h-4c-.8 0-1.3-.1-1.6-.3-.3-.2-.4-.5-.4-1s.2-.8.5-1c.3-.2.8-.3 1.6-.3h20.8c.7 0 1.3.1 1.6.3.3.2.5.5.5 1s-.2.8-.5 1c-.4.2-1 .3-1.7.3h-4c-.9 0-1.5.1-1.8.3-.3.2-.4.7-.4 1.4l.1 20.3s0 .1 0 .1 0 .1 0 .1c0 1.6-.3 2.7-.9 3.3-.6.6-1.7.9-3.1.9-1.5 0-2.6-.3-3.3-1-.7-.7-1-1.8-1-3.4V4.8h-.2z"/><path fill="#8DB93F" d="M34.8 5.9c-.3-.6-.5-1.1-.6-1.5-.1-.3-.2-.6-.2-.9 0-.9.4-1.7 1.2-2.3.8-.6 1.8-.9 3-.9 1 0 1.8.2 2.4.7.6.4 1.2 1.3 1.7 2.4l5.6 12.7c.2.5.4.8.7 1 .2.2.5.3.9.3.5 0 .8-.1 1.1-.3.3-.2.4-.5.4-.8 0-.1 0-.2-.1-.4s-.1-.4-.2-.6L46.5 6c-.3-.6-.5-1.1-.6-1.4-.1-.4-.2-.7-.2-1 0-.9.4-1.7 1.2-2.3.8-.6 1.8-.9 3-.9 1 0 1.7.2 2.4.7.6.4 1.2 1.3 1.9 2.7L56.5 9c.6 1.3 1.3 2.5 2.1 3.5.7.8 1.7 1.3 2.9 1.3 1.6 0 3-1 3.5-2.5.2-.4.3-.8.3-1.2 0-.3 0-.6-.1-.9 0-.1-.1-.2-.1-.3-.1-.2-.1-.3-.2-.5v-.1c-.1-.1-.1-.3-.2-.4v-.1l-1-2.3c-.2-.5-.4-.9-.5-1.2-.1-.3-.1-.6-.1-.9 0-1 .4-1.7 1.1-2.3.7-.6 1.7-.9 2.8-.9 1.3 0 2.3.3 3 .9.6.8 1 1.6 1 2.7 0 .3-.1.7-.2 1.1-.1.4-.3.9-.6 1.6L60.4 28c-.2.6-.5 1-.8 1.2-.3.2-.6.4-1 .4s-.7-.1-1-.4c-.3-.3-.6-.7-.8-1.2L54 21.6c-.2-.6-.5-1-.8-1.2-.2-.2-.5-.4-.9-.4-.3 0-.6.1-.9.3-.2.2-.5.6-.8 1.3L48 28c-.2.5-.5.9-.8 1.2-.3.3-.6.4-1 .4s-.7-.1-1-.4c-.3-.3-.6-.7-.8-1.2L34.8 5.9z"/><path fill="#939798" fill-rule="evenodd" d="M61.5 7.3c1.6 0 2.9 1.3 2.9 2.9 0 1.6-1.3 2.9-2.9 2.9-1.6 0-2.9-1.3-2.9-2.9 0-1.6 1.3-2.9 2.9-2.9z" clip-rule="evenodd"/></svg>